<svg width="17" height="16" viewBox="0 0 17 16" fill="none" xmlns="http://www.w3.org/2000/svg">
<path d="M3.23828 6.66675V10.6667" stroke="#BAC1C5" stroke-width="1.5" stroke-linecap="round" stroke-linejoin="round"/>
<path d="M13.9043 6.66675V10.6667" stroke="#BAC1C5" stroke-width="1.5" stroke-linecap="round" stroke-linejoin="round"/>
<path d="M11.9049 6.00008H5.23828C5.23828 5.11603 5.58947 4.26818 6.21459 3.64306C6.83971 3.01794 7.68756 2.66675 8.57161 2.66675C9.45567 2.66675 10.3035 3.01794 10.9286 3.64306C11.5538 4.26818 11.9049 5.11603 11.9049 6.00008Z" fill="#BAC1C5"/>
<path d="M11.7097 11.8048C11.8347 11.6798 11.9049 11.5102 11.9049 11.3334V6.66675H5.23828V11.3334C5.23828 11.5102 5.30852 11.6798 5.43354 11.8048C5.55857 11.9298 5.72814 12.0001 5.90495 12.0001H11.2383C11.4151 12.0001 11.5847 11.9298 11.7097 11.8048Z" fill="#BAC1C5"/>
<path d="M5.9043 2L6.57096 3.33333" stroke="#BAC1C5" stroke-width="1.5" stroke-linecap="round" stroke-linejoin="round"/>
<path d="M11.238 2L10.5713 3.33333" stroke="#BAC1C5" stroke-width="1.5" stroke-linecap="round" stroke-linejoin="round"/>
<path d="M6.57129 12V14" stroke="#BAC1C5" stroke-width="1.5" stroke-linecap="round" stroke-linejoin="round"/>
<path d="M10.5713 12V14" stroke="#BAC1C5" stroke-width="1.5" stroke-linecap="round" stroke-linejoin="round"/>
</svg>
