<svg width="17" height="16" viewBox="0 0 17 16" fill="none" xmlns="http://www.w3.org/2000/svg">
<path d="M6.57096 4.66657C4.57096 4.66657 3.9043 6.66657 3.9043 8.33324C3.9043 10.3332 5.23763 13.3332 6.57096 13.3332C7.2963 13.3026 7.6903 12.9999 8.57096 12.9999C9.44563 12.9999 9.57096 13.3332 10.571 13.3332C11.571 13.3332 13.2376 11.3332 13.2376 9.99991C13.219 9.99324 11.5896 9.73124 11.571 7.99991C11.5583 6.55324 13.1816 6.03057 13.2376 5.99991C12.5556 5.00524 11.2703 4.69124 10.9043 4.66657C9.94896 4.59257 9.01763 5.33324 8.57096 5.33324C8.11763 5.33324 7.3043 4.66657 6.57096 4.66657Z" fill="#BAC1C5"/>
<path d="M8.57129 2.66659C8.92491 2.66659 9.26405 2.52611 9.5141 2.27606C9.76415 2.02601 9.90462 1.68687 9.90462 1.33325C9.551 1.33325 9.21186 1.47373 8.96181 1.72378C8.71177 1.97382 8.57129 2.31296 8.57129 2.66659" stroke="#BAC1C5" stroke-width="1.5" stroke-linecap="round" stroke-linejoin="round"/>
</svg>
