<svg width="81" height="84" viewBox="0 0 81 84" fill="none" xmlns="http://www.w3.org/2000/svg">
<path d="M47.6949 26.4879L47.61 27.4702L47.7355 26.9862C47.61 27.4702 47.6101 27.4702 47.6102 27.4703L47.6107 27.4704L47.6125 27.4709L47.6189 27.4725L47.6438 27.4789L47.7393 27.503C47.8229 27.524 47.9456 27.5543 48.1031 27.5923C48.4182 27.6683 48.8729 27.7747 49.4336 27.8972C50.5545 28.142 52.1015 28.4515 53.8046 28.7095C55.5063 28.9673 57.3723 29.1751 59.1291 29.214C60.4975 29.2443 61.8247 29.173 62.9651 28.9309C62.9034 29.0837 62.8272 29.256 62.7335 29.4456C62.3149 30.2928 61.5444 31.4902 60.1428 32.8321C57.3399 35.5158 51.9916 38.7973 41.8396 40.9846C41.2309 41.1145 38.8404 41.6987 37.4131 42.3701C37.0577 42.5373 36.7202 42.7287 36.4841 42.945C36.2694 43.1417 35.9698 43.5289 36.1783 43.9988C36.2663 44.1969 36.4223 44.3388 36.5799 44.4416C36.7402 44.5462 36.9371 44.633 37.1611 44.7082C37.6068 44.8578 38.23 44.984 39.0562 45.088L39.0723 45.0908L39.1526 45.1045C39.2229 45.1165 39.3261 45.1339 39.4581 45.1557C39.7221 45.1993 40.1015 45.2606 40.5643 45.3316C41.4896 45.4734 42.7502 45.6542 44.0893 45.8091C45.4268 45.9639 46.8504 46.094 48.0996 46.133C48.712 46.1521 49.3018 46.1503 49.8272 46.1141C49.6374 46.336 49.4117 46.5893 49.1489 46.8672C48.1546 47.9187 46.6319 49.3219 44.5284 50.7134C40.3259 53.4934 33.7923 56.2356 24.4913 56.0212C23.5283 55.999 22.5712 56.3407 21.8785 57.0527C19.1172 59.8914 10.5328 69.0378 0.890361 82.5477C2.88777 73.4986 11.1046 52.0441 24.6076 33.4005C38.0975 14.775 56.7419 -0.885403 79.6038 1.18456C79.4136 1.4413 79.1643 1.76331 78.8534 2.13688C78.0112 3.14866 76.7173 4.53784 74.9196 6.03293C71.3257 9.0219 65.7157 12.4365 57.6656 14.1057L57.7066 15.0916L57.7671 14.5953C57.7066 15.0916 57.7067 15.0916 57.7069 15.0916L57.7073 15.0917L57.7087 15.0919L57.7136 15.0924L57.7314 15.0945L57.7991 15.1022C57.8582 15.1087 57.9447 15.1178 58.0565 15.1287C58.2802 15.1504 58.6051 15.1789 59.0137 15.2066C59.8305 15.2619 60.983 15.314 62.3296 15.3013C64.7248 15.2788 67.7594 15.0513 70.6168 14.259C70.4985 14.5022 70.3502 14.7861 70.1672 15.1024C69.53 16.204 68.4723 17.6996 66.7983 19.249C63.4569 22.3417 57.6263 25.6796 47.6949 26.4879Z" stroke="#62626B"/>
</svg>
