<svg width="143" height="48" viewBox="0 0 143 48" fill="none" xmlns="http://www.w3.org/2000/svg">
<g clip-path="url(#clip0)">
<rect width="52" height="48" transform="translate(2.5)" fill="url(#paint0_radial)"/>
<path d="M14.6582 18.1667L13.0811 16H15.9864M14.6582 18.1667V25.8333M14.6582 18.1667H15.9864M14.6582 25.8333H13.9112L14.4922 26.75H12.5V27.1667L12.9692 27.5833M14.6582 25.8333H15.9864M28.5623 31.5833H24.0383V48H14.6582V29.0833L12.9692 27.5833M12.9692 27.5833H15.9864M15.9864 18.1667H17.6466M15.9864 18.1667V25.8333M15.9864 18.1667V16M17.6466 18.1667H21.216M17.6466 18.1667V25.8333M17.6466 18.1667V16M21.216 18.1667H22.7101M21.216 18.1667V16M21.216 18.1667V25.8333M22.7101 18.1667H28.5623M22.7101 18.1667V16M22.7101 18.1667V25.8333M15.9864 25.8333H17.6466M15.9864 16H17.6466M17.6466 25.8333H21.216M17.6466 16H21.216M21.216 16H22.7101M21.216 25.8333H22.7101M28.5623 16H22.7101M22.7101 25.8333H28.5623M15.9864 27.5833V30.0833M15.9864 27.5833H22.7931M15.9864 30.0833H15.5713M15.9864 30.0833H22.7931M15.5713 30.0833L16.3184 31.5V32.25M15.5713 30.0833H17.1485M28.5623 27.5833H22.7931M22.7931 27.5833V30.0833M28.5623 30.0833H22.7931M15.5713 48L16.0694 47.0833V44.3333L15.4053 43.6667H16.3184V32.25M18.8087 48L18.3106 47.0833V44.3333L18.9747 43.6667H18.0616V32.25M17.2315 30.0833H18.8087L18.0616 31.5V32.25M16.3184 32.25H18.0616M20.2198 48L20.7179 47.0833V44.3333L20.0538 43.6667H20.9669V32.25M21.797 30.0833H20.2198L20.9669 31.5V32.25M23.4572 48L22.9591 47.0833V44.3333L23.6232 43.6667H22.7101V32.25M21.88 30.0833H23.4572L22.7101 31.5V32.25M20.9669 32.25H22.7101M42.3418 18.1667L43.9189 16H41.0136M42.3418 18.1667V25.8333M42.3418 18.1667H41.0136M42.3418 25.8333H43.0888L42.5078 26.75H44.5V27.1667L44.0308 27.5833M42.3418 25.8333H41.0136M28.4377 31.5833H32.9617V48H42.3418V29.0833L44.0308 27.5833M44.0308 27.5833H41.0136M41.0136 18.1667H39.3534M41.0136 18.1667V25.8333M41.0136 18.1667V16M39.3534 18.1667H35.784M39.3534 18.1667V25.8333M39.3534 18.1667V16M35.784 18.1667H34.2899M35.784 18.1667V16M35.784 18.1667V25.8333M34.2899 18.1667H28.4377M34.2899 18.1667V16M34.2899 18.1667V25.8333M41.0136 25.8333H39.3534M41.0136 16H39.3534M39.3534 25.8333H35.784M39.3534 16H35.784M35.784 16H34.2899M35.784 25.8333H34.2899M28.4377 16H34.2899M34.2899 25.8333H28.4377M41.0136 27.5833V30.0833M41.0136 27.5833H34.2069M41.0136 30.0833H41.4287M41.0136 30.0833H34.2069M41.4287 30.0833L40.6816 31.5V32.25M41.4287 30.0833H39.8515M28.4377 27.5833H34.2069M34.2069 27.5833V30.0833M28.4377 30.0833H34.2069M41.4287 48L40.9306 47.0833V44.3333L41.5947 43.6667H40.6816V32.25M38.1913 48L38.6894 47.0833V44.3333L38.0253 43.6667H38.9384V32.25M39.7685 30.0833H38.1913L38.9384 31.5V32.25M40.6816 32.25H38.9384M36.7802 48L36.2821 47.0833V44.3333L36.9462 43.6667H36.0331V32.25M35.203 30.0833H36.7802L36.0331 31.5V32.25M33.5428 48L34.0409 47.0833V44.3333L33.3768 43.6667H34.2899V32.25M35.12 30.0833H33.5428L34.2899 31.5V32.25M36.0331 32.25H34.2899M31.4261 21.9167C31.4261 23.5275 30.1253 24.8333 28.5208 24.8333C26.9162 24.8333 25.6154 23.5275 25.6154 21.9167C25.6154 20.3058 26.9162 19 28.5208 19C30.1253 19 31.4261 20.3058 31.4261 21.9167Z" stroke="white" stroke-width="2"/>
</g>
<path d="M73.956 21H75.892L79.028 12.36H77.092L74.924 18.624L72.748 12.36H70.82L73.956 21ZM81.1238 11.048H83.0518V9.28H81.1238V11.048ZM81.1238 21H83.0518V12.36H81.1238V21ZM89.2841 21.24C90.3988 21.24 91.2708 20.992 91.9001 20.496C92.5348 20 92.8521 19.3173 92.8521 18.448C92.8521 17.776 92.6388 17.248 92.2121 16.864C91.7908 16.48 91.0628 16.1547 90.0281 15.888C89.3561 15.7173 88.8495 15.5733 88.5081 15.456C88.1721 15.3387 87.9481 15.2213 87.8361 15.104C87.7241 14.9867 87.6681 14.8453 87.6681 14.68C87.6681 14.392 87.8068 14.168 88.0841 14.008C88.3615 13.8427 88.7268 13.7707 89.1801 13.792C89.6495 13.8187 90.0255 13.9387 90.3081 14.152C90.5961 14.3653 90.7668 14.656 90.8201 15.024L92.7881 14.672C92.6815 13.8933 92.3001 13.2747 91.6441 12.816C90.9881 12.352 90.1561 12.12 89.1481 12.12C88.1188 12.12 87.2948 12.36 86.6761 12.84C86.0575 13.32 85.7481 13.9653 85.7481 14.776C85.7481 15.4213 85.9641 15.9307 86.3961 16.304C86.8335 16.6773 87.5935 17.0053 88.6761 17.288C89.3268 17.4587 89.8068 17.6027 90.1161 17.72C90.4308 17.832 90.6361 17.9467 90.7321 18.064C90.8281 18.1813 90.8761 18.3387 90.8761 18.536C90.8761 18.856 90.7481 19.1093 90.4921 19.296C90.2361 19.4773 89.8788 19.568 89.4201 19.568C88.8921 19.568 88.4521 19.4453 88.1001 19.2C87.7535 18.9547 87.5321 18.6187 87.4361 18.192L85.4681 18.496C85.6121 19.3653 86.0175 20.04 86.6841 20.52C87.3508 21 88.2175 21.24 89.2841 21.24ZM95.2644 11.048H97.1924V9.28H95.2644V11.048ZM95.2644 21H97.1924V12.36H95.2644V21ZM105.153 21V19.384C104.614 19.464 104.134 19.4853 103.713 19.448C103.291 19.4107 102.985 19.232 102.793 18.912C102.691 18.7467 102.635 18.5333 102.625 18.272C102.619 18.0053 102.617 17.7013 102.617 17.36V13.872H105.153V12.36H102.617V9.96H100.697V12.36H99.1288V13.872H100.697V17.472C100.697 17.968 100.702 18.4107 100.713 18.8C100.723 19.184 100.827 19.5627 101.025 19.936C101.249 20.3467 101.577 20.648 102.009 20.84C102.441 21.0267 102.929 21.1253 103.473 21.136C104.022 21.152 104.582 21.1067 105.153 21ZM107.831 21H109.807V19.024H107.831V21ZM75.372 39.24C76.3373 39.24 77.1533 39.0053 77.82 38.536C78.4867 38.0613 78.9533 37.384 79.22 36.504L77.252 36.064C77.1027 36.5067 76.8787 36.8453 76.58 37.08C76.2867 37.3147 75.884 37.432 75.372 37.432C74.6467 37.432 74.1 37.1787 73.732 36.672C73.3693 36.1653 73.1853 35.5013 73.18 34.68C73.1853 33.8853 73.3613 33.2293 73.708 32.712C74.06 32.1893 74.6147 31.928 75.372 31.928C75.8147 31.928 76.2093 32.0587 76.556 32.32C76.9027 32.576 77.1507 32.936 77.3 33.4L79.22 32.88C79.0173 32.0267 78.5747 31.3547 77.892 30.864C77.2093 30.368 76.3773 30.12 75.396 30.12C74.5213 30.12 73.7667 30.3173 73.132 30.712C72.4973 31.1013 72.0067 31.64 71.66 32.328C71.3187 33.0107 71.1453 33.7947 71.14 34.68C71.1453 35.5493 71.3133 36.328 71.644 37.016C71.98 37.704 72.4627 38.248 73.092 38.648C73.7213 39.0427 74.4813 39.24 75.372 39.24ZM81.3071 39H83.2591V34.56C83.2591 33.8613 83.3578 33.3227 83.5551 32.944C83.7578 32.56 84.0138 32.296 84.3231 32.152C84.6378 32.0027 84.9578 31.928 85.2831 31.928C85.7418 31.928 86.1071 32.0293 86.3791 32.232C86.6511 32.4293 86.8511 32.6827 86.9791 32.992C87.1125 33.296 87.1978 33.6133 87.2351 33.944C87.2778 34.2747 87.2991 34.5733 87.2991 34.84V39H89.2511V34.176C89.2511 33.9733 89.2325 33.704 89.1951 33.368C89.1631 33.032 89.0885 32.6773 88.9711 32.304C88.8538 31.9307 88.6725 31.5787 88.4271 31.248C88.1818 30.912 87.8485 30.64 87.4271 30.432C87.0111 30.2187 86.4858 30.112 85.8511 30.112C85.2271 30.112 84.6778 30.2213 84.2031 30.44C83.7338 30.6533 83.3418 30.9467 83.0271 31.32V27.48H81.3071V39ZM91.9988 29.048H93.9268V27.28H91.9988V29.048ZM91.9988 39H93.9268V30.36H91.9988V39ZM100.159 39.24C101.274 39.24 102.146 38.992 102.775 38.496C103.41 38 103.727 37.3173 103.727 36.448C103.727 35.776 103.514 35.248 103.087 34.864C102.666 34.48 101.938 34.1547 100.903 33.888C100.231 33.7173 99.7245 33.5733 99.3831 33.456C99.0471 33.3387 98.8231 33.2213 98.7111 33.104C98.5991 32.9867 98.5431 32.8453 98.5431 32.68C98.5431 32.392 98.6818 32.168 98.9591 32.008C99.2365 31.8427 99.6018 31.7707 100.055 31.792C100.524 31.8187 100.9 31.9387 101.183 32.152C101.471 32.3653 101.642 32.656 101.695 33.024L103.663 32.672C103.556 31.8933 103.175 31.2747 102.519 30.816C101.863 30.352 101.031 30.12 100.023 30.12C98.9938 30.12 98.1698 30.36 97.5511 30.84C96.9325 31.32 96.6231 31.9653 96.6231 32.776C96.6231 33.4213 96.8391 33.9307 97.2711 34.304C97.7085 34.6773 98.4685 35.0053 99.5511 35.288C100.202 35.4587 100.682 35.6027 100.991 35.72C101.306 35.832 101.511 35.9467 101.607 36.064C101.703 36.1813 101.751 36.3387 101.751 36.536C101.751 36.856 101.623 37.1093 101.367 37.296C101.111 37.4773 100.754 37.568 100.295 37.568C99.7671 37.568 99.3271 37.4453 98.9751 37.2C98.6285 36.9547 98.4071 36.6187 98.3111 36.192L96.3431 36.496C96.4871 37.3653 96.8925 38.04 97.5591 38.52C98.2258 39 99.0925 39.24 100.159 39.24ZM106.139 29.048H108.067V27.28H106.139V29.048ZM106.139 39H108.067V30.36H106.139V39ZM110.948 39H112.9V34.56C112.9 33.8613 112.998 33.3227 113.196 32.944C113.398 32.56 113.654 32.296 113.964 32.152C114.278 32.0027 114.598 31.928 114.924 31.928C115.382 31.928 115.748 32.0293 116.02 32.232C116.292 32.4293 116.492 32.6827 116.62 32.992C116.753 33.296 116.838 33.6133 116.876 33.944C116.918 34.2747 116.94 34.5733 116.94 34.84V39H118.892V34.176C118.892 33.9733 118.873 33.704 118.836 33.368C118.804 33.032 118.729 32.6773 118.612 32.304C118.494 31.9307 118.313 31.5787 118.068 31.248C117.822 30.912 117.489 30.64 117.068 30.432C116.652 30.2187 116.126 30.112 115.492 30.112C114.868 30.112 114.318 30.2213 113.844 30.44C113.374 30.6533 112.982 30.9467 112.668 31.32V30.36H110.948V39ZM123.895 39.24C124.583 39.24 125.167 39.128 125.647 38.904C126.133 38.6747 126.559 38.32 126.927 37.84V39H128.615V33.696C128.615 33.3227 128.599 32.9787 128.567 32.664C128.535 32.344 128.442 32.032 128.287 31.728C128.005 31.1573 127.57 30.7467 126.983 30.496C126.402 30.2453 125.727 30.12 124.959 30.12C123.946 30.12 123.138 30.3413 122.535 30.784C121.933 31.2267 121.525 31.8133 121.311 32.544L123.071 33.096C123.215 32.6533 123.469 32.3413 123.831 32.16C124.194 31.9787 124.57 31.888 124.959 31.888C125.546 31.888 125.978 32.008 126.255 32.248C126.533 32.4827 126.69 32.848 126.727 33.344C125.97 33.456 125.266 33.5653 124.615 33.672C123.97 33.7733 123.421 33.8987 122.967 34.048C122.285 34.2827 121.786 34.616 121.471 35.048C121.157 35.4747 120.999 36.0027 120.999 36.632C120.999 37.1067 121.109 37.5413 121.327 37.936C121.551 38.3307 121.879 38.648 122.311 38.888C122.743 39.1227 123.271 39.24 123.895 39.24ZM124.279 37.704C123.826 37.704 123.479 37.6 123.239 37.392C123.005 37.184 122.887 36.9227 122.887 36.608C122.887 36.3253 122.978 36.096 123.159 35.92C123.346 35.744 123.605 35.5947 123.935 35.472C124.239 35.3707 124.605 35.2827 125.031 35.208C125.458 35.128 126.015 35.0347 126.703 34.928C126.698 35.1307 126.685 35.3573 126.663 35.608C126.642 35.8533 126.591 36.0747 126.511 36.272C126.447 36.4693 126.322 36.68 126.135 36.904C125.954 37.128 125.709 37.3173 125.399 37.472C125.09 37.6267 124.717 37.704 124.279 37.704ZM134.438 39.248C135.062 39.248 135.609 39.1413 136.078 38.928C136.553 38.7093 136.947 38.4133 137.262 38.04V39H138.966V30.36H137.03V34.8C137.03 35.4987 136.929 36.04 136.726 36.424C136.529 36.8027 136.275 37.0667 135.966 37.216C135.657 37.36 135.337 37.432 135.006 37.432C134.547 37.432 134.182 37.3333 133.91 37.136C133.638 36.9333 133.435 36.68 133.302 36.376C133.174 36.0667 133.089 35.7467 133.046 35.416C133.009 35.0853 132.99 34.7867 132.99 34.52V30.36H131.038V35.184C131.038 35.3867 131.054 35.656 131.086 35.992C131.123 36.328 131.201 36.6827 131.318 37.056C131.435 37.4293 131.617 37.784 131.862 38.12C132.107 38.4507 132.438 38.7227 132.854 38.936C133.275 39.144 133.803 39.248 134.438 39.248Z" fill="#252529"/>
<defs>
<radialGradient id="paint0_radial" cx="0" cy="0" r="1" gradientUnits="userSpaceOnUse" gradientTransform="translate(2 48) rotate(-42.9228) scale(68.2807 73.9707)">
<stop stop-color="#7EBDE9"/>
<stop offset="0.4375" stop-color="#F7CC00"/>
<stop offset="1" stop-color="#E5201B"/>
</radialGradient>
<clipPath id="clip0">
<rect width="52" height="48" fill="white" transform="translate(2.5)"/>
</clipPath>
</defs>
</svg>
