<svg width="14" height="14" viewBox="0 0 14 14" fill="none" xmlns="http://www.w3.org/2000/svg">
<path fill-rule="evenodd" clip-rule="evenodd" d="M6.33301 1.66683C3.75568 1.66683 1.66634 3.75617 1.66634 6.3335C1.66634 8.91083 3.75568 11.0002 6.33301 11.0002C8.91034 11.0002 10.9997 8.91083 10.9997 6.3335C10.9997 3.75617 8.91034 1.66683 6.33301 1.66683ZM0.333008 6.3335C0.333008 3.01979 3.0193 0.333496 6.33301 0.333496C9.64672 0.333496 12.333 3.01979 12.333 6.3335C12.333 9.6472 9.64672 12.3335 6.33301 12.3335C3.0193 12.3335 0.333008 9.6472 0.333008 6.3335Z" fill="#62626B"/>
<path fill-rule="evenodd" clip-rule="evenodd" d="M9.62886 9.62837C9.88921 9.36802 10.3113 9.36802 10.5717 9.62837L13.4717 12.5284C13.732 12.7887 13.732 13.2108 13.4717 13.4712C13.2113 13.7315 12.7892 13.7315 12.5289 13.4712L9.62886 10.5712C9.36851 10.3108 9.36851 9.88872 9.62886 9.62837Z" fill="#62626B"/>
</svg>
