<svg width="546" height="582" viewBox="0 0 546 582" fill="none" xmlns="http://www.w3.org/2000/svg">
<path d="M545 578L545 578.5L545.5 578.5L545.5 578L545 578ZM0.646459 577.646C0.451147 577.842 0.451147 578.158 0.646459 578.354L3.8284 581.535C4.02366 581.731 4.34025 581.731 4.5355 581.535C4.73081 581.34 4.73081 581.024 4.5355 580.828L1.70713 578L4.5355 575.172C4.73081 574.976 4.73081 574.66 4.5355 574.464C4.34025 574.269 4.02366 574.269 3.82841 574.464L0.646459 577.646ZM544.5 1.33257e-08L544.5 1.50521L545.5 1.50521L545.5 -1.33293e-08L544.5 1.33257e-08ZM544.5 4.51562L544.5 7.52604L545.5 7.52604L545.5 4.51563L544.5 4.51562ZM544.5 10.5365L544.5 13.5469L545.5 13.5469L545.5 10.5365L544.5 10.5365ZM544.5 16.5573L544.5 19.5677L545.5 19.5677L545.5 16.5573L544.5 16.5573ZM544.5 22.5781L544.5 25.5885L545.5 25.5885L545.5 22.5781L544.5 22.5781ZM544.5 28.599L544.5 31.6094L545.5 31.6094L545.5 28.599L544.5 28.599ZM544.5 34.6198L544.5 37.6302L545.5 37.6302L545.5 34.6198L544.5 34.6198ZM544.5 40.6406L544.5 43.651L545.5 43.651L545.5 40.6406L544.5 40.6406ZM544.5 46.6615L544.5 49.6719L545.5 49.6719L545.5 46.6615L544.5 46.6615ZM544.5 52.6823L544.5 55.6927L545.5 55.6927L545.5 52.6823L544.5 52.6823ZM544.5 58.7031L544.5 61.7136L545.5 61.7136L545.5 58.7031L544.5 58.7031ZM544.5 64.724L544.5 67.7344L545.5 67.7344L545.5 64.724L544.5 64.724ZM544.5 70.7448L544.5 73.7552L545.5 73.7552L545.5 70.7448L544.5 70.7448ZM544.5 76.7656L544.5 79.776L545.5 79.776L545.5 76.7656L544.5 76.7656ZM544.5 82.7865L544.5 85.7969L545.5 85.7969L545.5 82.7865L544.5 82.7865ZM544.5 88.8073L544.5 91.8177L545.5 91.8177L545.5 88.8073L544.5 88.8073ZM544.5 94.8281L544.5 97.8385L545.5 97.8385L545.5 94.8281L544.5 94.8281ZM544.5 100.849L544.5 103.859L545.5 103.859L545.5 100.849L544.5 100.849ZM544.5 106.87L544.5 109.88L545.5 109.88L545.5 106.87L544.5 106.87ZM544.5 112.891L544.5 115.901L545.5 115.901L545.5 112.891L544.5 112.891ZM544.5 118.911L544.5 121.922L545.5 121.922L545.5 118.911L544.5 118.911ZM544.5 124.932L544.5 127.943L545.5 127.943L545.5 124.932L544.5 124.932ZM544.5 130.953L544.5 133.964L545.5 133.964L545.5 130.953L544.5 130.953ZM544.5 136.974L544.5 139.984L545.5 139.984L545.5 136.974L544.5 136.974ZM544.5 142.995L544.5 146.005L545.5 146.005L545.5 142.995L544.5 142.995ZM544.5 149.016L544.5 152.026L545.5 152.026L545.5 149.016L544.5 149.016ZM544.5 155.036L544.5 158.047L545.5 158.047L545.5 155.036L544.5 155.036ZM544.5 161.057L544.5 164.068L545.5 164.068L545.5 161.057L544.5 161.057ZM544.5 167.078L544.5 170.089L545.5 170.089L545.5 167.078L544.5 167.078ZM544.5 173.099L544.5 176.109L545.5 176.109L545.5 173.099L544.5 173.099ZM544.5 179.12L544.5 182.13L545.5 182.13L545.5 179.12L544.5 179.12ZM544.5 185.141L544.5 188.151L545.5 188.151L545.5 185.141L544.5 185.141ZM544.5 191.162L544.5 194.172L545.5 194.172L545.5 191.162L544.5 191.162ZM544.5 197.182L544.5 200.193L545.5 200.193L545.5 197.182L544.5 197.182ZM544.5 203.203L544.5 206.214L545.5 206.214L545.5 203.203L544.5 203.203ZM544.5 209.224L544.5 212.234L545.5 212.234L545.5 209.224L544.5 209.224ZM544.5 215.245L544.5 218.255L545.5 218.255L545.5 215.245L544.5 215.245ZM544.5 221.266L544.5 224.276L545.5 224.276L545.5 221.266L544.5 221.266ZM544.5 227.287L544.5 230.297L545.5 230.297L545.5 227.287L544.5 227.287ZM544.5 233.307L544.5 236.318L545.5 236.318L545.5 233.307L544.5 233.307ZM544.5 239.328L544.5 242.339L545.5 242.339L545.5 239.328L544.5 239.328ZM544.5 245.349L544.5 248.36L545.5 248.36L545.5 245.349L544.5 245.349ZM544.5 251.37L544.5 254.38L545.5 254.38L545.5 251.37L544.5 251.37ZM544.5 257.391L544.5 260.401L545.5 260.401L545.5 257.391L544.5 257.391ZM544.5 263.412L544.5 266.422L545.5 266.422L545.5 263.412L544.5 263.412ZM544.5 269.432L544.5 272.443L545.5 272.443L545.5 269.432L544.5 269.432ZM544.5 275.453L544.5 278.464L545.5 278.464L545.5 275.453L544.5 275.453ZM544.5 281.474L544.5 284.484L545.5 284.484L545.5 281.474L544.5 281.474ZM544.5 287.495L544.5 290.505L545.5 290.505L545.5 287.495L544.5 287.495ZM544.5 293.516L544.5 296.526L545.5 296.526L545.5 293.516L544.5 293.516ZM544.5 299.536L544.5 302.547L545.5 302.547L545.5 299.536L544.5 299.536ZM544.5 305.557L544.5 308.568L545.5 308.568L545.5 305.557L544.5 305.557ZM544.5 311.578L544.5 314.589L545.5 314.589L545.5 311.578L544.5 311.578ZM544.5 317.599L544.5 320.609L545.5 320.609L545.5 317.599L544.5 317.599ZM544.5 323.62L544.5 326.63L545.5 326.63L545.5 323.62L544.5 323.62ZM544.5 329.641L544.5 332.651L545.5 332.651L545.5 329.641L544.5 329.641ZM544.5 335.661L544.5 338.672L545.5 338.672L545.5 335.661L544.5 335.661ZM544.5 341.682L544.5 344.693L545.5 344.693L545.5 341.682L544.5 341.682ZM544.5 347.703L544.5 350.713L545.5 350.713L545.5 347.703L544.5 347.703ZM544.5 353.724L544.5 356.734L545.5 356.734L545.5 353.724L544.5 353.724ZM544.5 359.745L544.5 362.755L545.5 362.755L545.5 359.745L544.5 359.745ZM544.5 365.765L544.5 368.776L545.5 368.776L545.5 365.765L544.5 365.765ZM544.5 371.786L544.5 374.797L545.5 374.797L545.5 371.786L544.5 371.786ZM544.5 377.807L544.5 380.817L545.5 380.817L545.5 377.807L544.5 377.807ZM544.5 383.828L544.5 386.838L545.5 386.838L545.5 383.828L544.5 383.828ZM544.5 389.849L544.5 392.859L545.5 392.859L545.5 389.849L544.5 389.849ZM544.5 395.869L544.5 398.88L545.5 398.88L545.5 395.869L544.5 395.869ZM544.5 401.89L544.5 404.901L545.5 404.901L545.5 401.89L544.5 401.89ZM544.5 407.911L544.5 410.922L545.5 410.922L545.5 407.911L544.5 407.911ZM544.5 413.932L544.5 416.942L545.5 416.942L545.5 413.932L544.5 413.932ZM544.5 419.953L544.5 422.963L545.5 422.963L545.5 419.953L544.5 419.953ZM544.5 425.974L544.5 428.984L545.5 428.984L545.5 425.974L544.5 425.974ZM544.5 431.994L544.5 435.005L545.5 435.005L545.5 431.994L544.5 431.994ZM544.5 438.015L544.5 441.026L545.5 441.026L545.5 438.015L544.5 438.015ZM544.5 444.036L544.5 447.046L545.5 447.046L545.5 444.036L544.5 444.036ZM544.5 450.057L544.5 453.067L545.5 453.067L545.5 450.057L544.5 450.057ZM544.5 456.078L544.5 459.088L545.5 459.088L545.5 456.078L544.5 456.078ZM544.5 462.098L544.5 465.109L545.5 465.109L545.5 462.098L544.5 462.098ZM544.5 468.119L544.5 471.13L545.5 471.13L545.5 468.119L544.5 468.119ZM544.5 474.14L544.5 477.15L545.5 477.15L545.5 474.14L544.5 474.14ZM544.5 480.161L544.5 483.171L545.5 483.171L545.5 480.161L544.5 480.161ZM544.5 486.182L544.5 489.192L545.5 489.192L545.5 486.182L544.5 486.182ZM544.5 492.202L544.5 495.213L545.5 495.213L545.5 492.202L544.5 492.202ZM544.5 498.223L544.5 501.234L545.5 501.234L545.5 498.223L544.5 498.223ZM544.5 504.244L544.5 507.255L545.5 507.255L545.5 504.244L544.5 504.244ZM544.5 510.265L544.5 513.275L545.5 513.275L545.5 510.265L544.5 510.265ZM544.5 516.286L544.5 519.296L545.5 519.296L545.5 516.286L544.5 516.286ZM544.5 522.307L544.5 525.317L545.5 525.317L545.5 522.307L544.5 522.307ZM544.5 528.328L544.5 531.338L545.5 531.338L545.5 528.328L544.5 528.328ZM544.5 534.348L544.5 537.359L545.5 537.359L545.5 534.348L544.5 534.348ZM544.5 540.369L544.5 543.38L545.5 543.38L545.5 540.369L544.5 540.369ZM544.5 546.39L544.5 549.401L545.5 549.401L545.5 546.39L544.5 546.39ZM544.5 552.411L544.5 555.421L545.5 555.421L545.5 552.411L544.5 552.411ZM544.5 558.432L544.5 561.442L545.5 561.442L545.5 558.432L544.5 558.432ZM544.5 564.453L544.5 567.463L545.5 567.463L545.5 564.453L544.5 564.453ZM544.5 570.474L544.5 573.484L545.5 573.484L545.5 570.474L544.5 570.474ZM544.5 576.495L544.5 578L545.5 578L545.5 576.495L544.5 576.495ZM545 577.5L543.505 577.5L543.505 578.5L545 578.5L545 577.5ZM540.516 577.5L537.527 577.5L537.527 578.5L540.516 578.5L540.516 577.5ZM534.538 577.5L531.549 577.5L531.549 578.5L534.538 578.5L534.538 577.5ZM528.56 577.5L525.571 577.5L525.571 578.5L528.56 578.5L528.56 577.5ZM522.582 577.5L519.593 577.5L519.593 578.5L522.582 578.5L522.582 577.5ZM516.604 577.5L513.615 577.5L513.615 578.5L516.604 578.5L516.604 577.5ZM510.626 577.5L507.637 577.5L507.637 578.5L510.626 578.5L510.626 577.5ZM504.648 577.5L501.659 577.5L501.659 578.5L504.648 578.5L504.648 577.5ZM498.67 577.5L495.681 577.5L495.681 578.5L498.67 578.5L498.67 577.5ZM492.692 577.5L489.703 577.5L489.703 578.5L492.692 578.5L492.692 577.5ZM486.714 577.5L483.725 577.5L483.725 578.5L486.714 578.5L486.714 577.5ZM480.736 577.5L477.747 577.5L477.747 578.5L480.736 578.5L480.736 577.5ZM474.758 577.5L471.769 577.5L471.769 578.5L474.758 578.5L474.758 577.5ZM468.78 577.5L465.791 577.5L465.791 578.5L468.78 578.5L468.78 577.5ZM462.802 577.5L459.813 577.5L459.813 578.5L462.802 578.5L462.802 577.5ZM456.824 577.5L453.835 577.5L453.835 578.5L456.824 578.5L456.824 577.5ZM450.846 577.5L447.857 577.5L447.857 578.5L450.846 578.5L450.846 577.5ZM444.868 577.5L441.879 577.5L441.879 578.5L444.868 578.5L444.868 577.5ZM438.89 577.5L435.901 577.5L435.901 578.5L438.89 578.5L438.89 577.5ZM432.912 577.5L429.923 577.5L429.923 578.5L432.912 578.5L432.912 577.5ZM426.934 577.5L423.945 577.5L423.945 578.5L426.934 578.5L426.934 577.5ZM420.956 577.5L417.967 577.5L417.967 578.5L420.956 578.5L420.956 577.5ZM414.978 577.5L411.989 577.5L411.989 578.5L414.978 578.5L414.978 577.5ZM409 577.5L406.011 577.5L406.011 578.5L409 578.5L409 577.5ZM403.022 577.5L400.033 577.5L400.033 578.5L403.022 578.5L403.022 577.5ZM397.044 577.5L394.055 577.5L394.055 578.5L397.044 578.5L397.044 577.5ZM391.066 577.5L388.077 577.5L388.077 578.5L391.066 578.5L391.066 577.5ZM385.088 577.5L382.099 577.5L382.099 578.5L385.088 578.5L385.088 577.5ZM379.11 577.5L376.121 577.5L376.121 578.5L379.11 578.5L379.11 577.5ZM373.132 577.5L370.143 577.5L370.143 578.5L373.132 578.5L373.132 577.5ZM367.154 577.5L364.165 577.5L364.165 578.5L367.154 578.5L367.154 577.5ZM361.176 577.5L358.187 577.5L358.187 578.5L361.176 578.5L361.176 577.5ZM355.198 577.5L352.209 577.5L352.209 578.5L355.198 578.5L355.198 577.5ZM349.22 577.5L346.231 577.5L346.231 578.5L349.22 578.5L349.22 577.5ZM343.242 577.5L340.253 577.5L340.253 578.5L343.242 578.5L343.242 577.5ZM337.264 577.5L334.275 577.5L334.275 578.5L337.264 578.5L337.264 577.5ZM331.286 577.5L328.297 577.5L328.297 578.5L331.286 578.5L331.286 577.5ZM325.308 577.5L322.319 577.5L322.319 578.5L325.308 578.5L325.308 577.5ZM319.33 577.5L316.341 577.5L316.341 578.5L319.33 578.5L319.33 577.5ZM313.351 577.5L310.362 577.5L310.362 578.5L313.351 578.5L313.351 577.5ZM307.373 577.5L304.384 577.5L304.384 578.5L307.373 578.5L307.373 577.5ZM301.395 577.5L298.406 577.5L298.406 578.5L301.395 578.5L301.395 577.5ZM295.417 577.5L292.428 577.5L292.428 578.5L295.417 578.5L295.417 577.5ZM289.439 577.5L286.45 577.5L286.45 578.5L289.439 578.5L289.439 577.5ZM283.461 577.5L280.472 577.5L280.472 578.5L283.461 578.5L283.461 577.5ZM277.483 577.5L274.494 577.5L274.494 578.5L277.483 578.5L277.483 577.5ZM271.505 577.5L268.516 577.5L268.516 578.5L271.505 578.5L271.505 577.5ZM265.527 577.5L262.538 577.5L262.538 578.5L265.527 578.5L265.527 577.5ZM259.549 577.5L256.56 577.5L256.56 578.5L259.549 578.5L259.549 577.5ZM253.571 577.5L250.582 577.5L250.582 578.5L253.571 578.5L253.571 577.5ZM247.593 577.5L244.604 577.5L244.604 578.5L247.593 578.5L247.593 577.5ZM241.615 577.5L238.626 577.5L238.626 578.5L241.615 578.5L241.615 577.5ZM235.637 577.5L232.648 577.5L232.648 578.5L235.637 578.5L235.637 577.5ZM229.659 577.5L226.67 577.5L226.67 578.5L229.659 578.5L229.659 577.5ZM223.681 577.5L220.692 577.5L220.692 578.5L223.681 578.5L223.681 577.5ZM217.703 577.5L214.714 577.5L214.714 578.5L217.703 578.5L217.703 577.5ZM211.725 577.5L208.736 577.5L208.736 578.5L211.725 578.5L211.725 577.5ZM205.747 577.5L202.758 577.5L202.758 578.5L205.747 578.5L205.747 577.5ZM199.769 577.5L196.78 577.5L196.78 578.5L199.769 578.5L199.769 577.5ZM193.791 577.5L190.802 577.5L190.802 578.5L193.791 578.5L193.791 577.5ZM187.813 577.5L184.824 577.5L184.824 578.5L187.813 578.5L187.813 577.5ZM181.835 577.5L178.846 577.5L178.846 578.5L181.835 578.5L181.835 577.5ZM175.857 577.5L172.868 577.5L172.868 578.5L175.857 578.5L175.857 577.5ZM169.879 577.5L166.89 577.5L166.89 578.5L169.879 578.5L169.879 577.5ZM163.901 577.5L160.912 577.5L160.912 578.5L163.901 578.5L163.901 577.5ZM157.923 577.5L154.934 577.5L154.934 578.5L157.923 578.5L157.923 577.5ZM151.945 577.5L148.956 577.5L148.956 578.5L151.945 578.5L151.945 577.5ZM145.967 577.5L142.978 577.5L142.978 578.5L145.967 578.5L145.967 577.5ZM139.989 577.5L137 577.5L137 578.5L139.989 578.5L139.989 577.5ZM134.011 577.5L131.022 577.5L131.022 578.5L134.011 578.5L134.011 577.5ZM128.033 577.5L125.044 577.5L125.044 578.5L128.033 578.5L128.033 577.5ZM122.055 577.5L119.066 577.5L119.066 578.5L122.055 578.5L122.055 577.5ZM116.077 577.5L113.088 577.5L113.088 578.5L116.077 578.5L116.077 577.5ZM110.099 577.5L107.11 577.5L107.11 578.5L110.099 578.5L110.099 577.5ZM104.121 577.5L101.132 577.5L101.132 578.5L104.121 578.5L104.121 577.5ZM98.1425 577.5L95.1535 577.5L95.1535 578.5L98.1425 578.5L98.1425 577.5ZM92.1645 577.5L89.1755 577.5L89.1755 578.5L92.1645 578.5L92.1645 577.5ZM86.1865 577.5L83.1974 577.5L83.1974 578.5L86.1865 578.5L86.1865 577.5ZM80.2084 577.5L77.2194 577.5L77.2194 578.5L80.2084 578.5L80.2084 577.5ZM74.2304 577.5L71.2414 577.5L71.2414 578.5L74.2304 578.5L74.2304 577.5ZM68.2524 577.5L65.2633 577.5L65.2633 578.5L68.2524 578.5L68.2524 577.5ZM62.2744 577.5L59.2853 577.5L59.2853 578.5L62.2744 578.5L62.2744 577.5ZM56.2963 577.5L53.3073 577.5L53.3073 578.5L56.2963 578.5L56.2963 577.5ZM50.3183 577.5L47.3293 577.5L47.3293 578.5L50.3183 578.5L50.3183 577.5ZM44.3402 577.5L41.3513 577.5L41.3513 578.5L44.3402 578.5L44.3402 577.5ZM38.3622 577.5L35.3732 577.5L35.3732 578.5L38.3622 578.5L38.3622 577.5ZM32.3842 577.5L29.3952 577.5L29.3952 578.5L32.3842 578.5L32.3842 577.5ZM26.4062 577.5L23.4172 577.5L23.4172 578.5L26.4062 578.5L26.4062 577.5ZM20.4281 577.5L17.4391 577.5L17.4391 578.5L20.4281 578.5L20.4281 577.5ZM14.4501 577.5L11.4611 577.5L11.4611 578.5L14.4501 578.5L14.4501 577.5ZM8.47208 577.5L5.48307 577.5L5.48307 578.5L8.47208 578.5L8.47208 577.5ZM2.49405 577.5L0.999975 577.5L0.999975 578.5L2.49405 578.5L2.49405 577.5Z" fill="black"/>
</svg>
