<svg width="505" height="385" viewBox="0 0 505 385" fill="none" xmlns="http://www.w3.org/2000/svg">
<path d="M504 381L504 381.5L504.5 381.5L504.5 381L504 381ZM0.646437 380.646C0.451155 380.842 0.451155 381.158 0.646437 381.354L3.82841 384.536C4.02366 384.731 4.34025 384.731 4.53551 384.536C4.73079 384.34 4.73079 384.024 4.53551 383.828L1.70708 381L4.53551 378.172C4.73079 377.976 4.73079 377.66 4.53551 377.464C4.34025 377.269 4.02367 377.269 3.82841 377.464L0.646437 380.646ZM503.5 2.74949e-08L503.5 1.48828L504.5 1.48828L504.5 -2.74982e-08L503.5 2.74949e-08ZM503.5 4.46484L503.5 7.44141L504.5 7.44141L504.5 4.46484L503.5 4.46484ZM503.5 10.418L503.5 13.3945L504.5 13.3945L504.5 10.418L503.5 10.418ZM503.5 16.3711L503.5 19.3477L504.5 19.3477L504.5 16.3711L503.5 16.3711ZM503.5 22.3242L503.5 25.3008L504.5 25.3008L504.5 22.3242L503.5 22.3242ZM503.5 28.2773L503.5 31.2539L504.5 31.2539L504.5 28.2773L503.5 28.2773ZM503.5 34.2305L503.5 37.207L504.5 37.207L504.5 34.2305L503.5 34.2305ZM503.5 40.1836L503.5 43.1602L504.5 43.1602L504.5 40.1836L503.5 40.1836ZM503.5 46.1367L503.5 49.1133L504.5 49.1133L504.5 46.1367L503.5 46.1367ZM503.5 52.0898L503.5 55.0664L504.5 55.0664L504.5 52.0898L503.5 52.0898ZM503.5 58.043L503.5 61.0195L504.5 61.0195L504.5 58.043L503.5 58.043ZM503.5 63.9961L503.5 66.9727L504.5 66.9727L504.5 63.9961L503.5 63.9961ZM503.5 69.9492L503.5 72.9258L504.5 72.9258L504.5 69.9492L503.5 69.9492ZM503.5 75.9024L503.5 78.8789L504.5 78.8789L504.5 75.9024L503.5 75.9024ZM503.5 81.8555L503.5 84.832L504.5 84.832L504.5 81.8555L503.5 81.8555ZM503.5 87.8086L503.5 90.7852L504.5 90.7852L504.5 87.8086L503.5 87.8086ZM503.5 93.7617L503.5 96.7383L504.5 96.7383L504.5 93.7617L503.5 93.7617ZM503.5 99.7149L503.5 102.691L504.5 102.691L504.5 99.7149L503.5 99.7149ZM503.5 105.668L503.5 108.645L504.5 108.645L504.5 105.668L503.5 105.668ZM503.5 111.621L503.5 114.598L504.5 114.598L504.5 111.621L503.5 111.621ZM503.5 117.574L503.5 120.551L504.5 120.551L504.5 117.574L503.5 117.574ZM503.5 123.527L503.5 126.504L504.5 126.504L504.5 123.527L503.5 123.527ZM503.5 129.48L503.5 132.457L504.5 132.457L504.5 129.48L503.5 129.48ZM503.5 135.434L503.5 138.41L504.5 138.41L504.5 135.434L503.5 135.434ZM503.5 141.387L503.5 144.363L504.5 144.363L504.5 141.387L503.5 141.387ZM503.5 147.34L503.5 150.316L504.5 150.316L504.5 147.34L503.5 147.34ZM503.5 153.293L503.5 156.27L504.5 156.27L504.5 153.293L503.5 153.293ZM503.5 159.246L503.5 162.223L504.5 162.223L504.5 159.246L503.5 159.246ZM503.5 165.199L503.5 168.176L504.5 168.176L504.5 165.199L503.5 165.199ZM503.5 171.152L503.5 174.129L504.5 174.129L504.5 171.152L503.5 171.152ZM503.5 177.105L503.5 180.082L504.5 180.082L504.5 177.105L503.5 177.105ZM503.5 183.059L503.5 186.035L504.5 186.035L504.5 183.059L503.5 183.059ZM503.5 189.012L503.5 191.988L504.5 191.988L504.5 189.012L503.5 189.012ZM503.5 194.965L503.5 197.941L504.5 197.941L504.5 194.965L503.5 194.965ZM503.5 200.918L503.5 203.895L504.5 203.895L504.5 200.918L503.5 200.918ZM503.5 206.871L503.5 209.848L504.5 209.848L504.5 206.871L503.5 206.871ZM503.5 212.824L503.5 215.801L504.5 215.801L504.5 212.824L503.5 212.824ZM503.5 218.777L503.5 221.754L504.5 221.754L504.5 218.777L503.5 218.777ZM503.5 224.73L503.5 227.707L504.5 227.707L504.5 224.73L503.5 224.73ZM503.5 230.684L503.5 233.66L504.5 233.66L504.5 230.684L503.5 230.684ZM503.5 236.637L503.5 239.613L504.5 239.613L504.5 236.637L503.5 236.637ZM503.5 242.59L503.5 245.566L504.5 245.566L504.5 242.59L503.5 242.59ZM503.5 248.543L503.5 251.52L504.5 251.52L504.5 248.543L503.5 248.543ZM503.5 254.496L503.5 257.473L504.5 257.473L504.5 254.496L503.5 254.496ZM503.5 260.449L503.5 263.426L504.5 263.426L504.5 260.449L503.5 260.449ZM503.5 266.402L503.5 269.379L504.5 269.379L504.5 266.402L503.5 266.402ZM503.5 272.355L503.5 275.332L504.5 275.332L504.5 272.355L503.5 272.355ZM503.5 278.309L503.5 281.285L504.5 281.285L504.5 278.309L503.5 278.309ZM503.5 284.262L503.5 287.238L504.5 287.238L504.5 284.262L503.5 284.262ZM503.5 290.215L503.5 293.191L504.5 293.191L504.5 290.215L503.5 290.215ZM503.5 296.168L503.5 299.145L504.5 299.145L504.5 296.168L503.5 296.168ZM503.5 302.121L503.5 305.098L504.5 305.098L504.5 302.121L503.5 302.121ZM503.5 308.074L503.5 311.051L504.5 311.051L504.5 308.074L503.5 308.074ZM503.5 314.027L503.5 317.004L504.5 317.004L504.5 314.027L503.5 314.027ZM503.5 319.98L503.5 322.957L504.5 322.957L504.5 319.98L503.5 319.98ZM503.5 325.934L503.5 328.91L504.5 328.91L504.5 325.934L503.5 325.934ZM503.5 331.887L503.5 334.863L504.5 334.863L504.5 331.887L503.5 331.887ZM503.5 337.84L503.5 340.816L504.5 340.816L504.5 337.84L503.5 337.84ZM503.5 343.793L503.5 346.77L504.5 346.77L504.5 343.793L503.5 343.793ZM503.5 349.746L503.5 352.723L504.5 352.723L504.5 349.746L503.5 349.746ZM503.5 355.699L503.5 358.676L504.5 358.676L504.5 355.699L503.5 355.699ZM503.5 361.652L503.5 364.629L504.5 364.629L504.5 361.652L503.5 361.652ZM503.5 367.605L503.5 370.582L504.5 370.582L504.5 367.605L503.5 367.605ZM503.5 373.559L503.5 376.535L504.5 376.535L504.5 373.559L503.5 373.559ZM503.5 379.512L503.5 381L504.5 381L504.5 379.512L503.5 379.512ZM504 380.5L502.503 380.5L502.503 381.5L504 381.5L504 380.5ZM499.509 380.5L496.515 380.5L496.515 381.5L499.509 381.5L499.509 380.5ZM493.521 380.5L490.527 380.5L490.527 381.5L493.521 381.5L493.521 380.5ZM487.533 380.5L484.539 380.5L484.539 381.5L487.533 381.5L487.533 380.5ZM481.545 380.5L478.551 380.5L478.551 381.5L481.545 381.5L481.545 380.5ZM475.557 380.5L472.562 380.5L472.562 381.5L475.557 381.5L475.557 380.5ZM469.568 380.5L466.574 380.5L466.574 381.5L469.568 381.5L469.568 380.5ZM463.58 380.5L460.586 380.5L460.586 381.5L463.58 381.5L463.58 380.5ZM457.592 380.5L454.598 380.5L454.598 381.5L457.592 381.5L457.592 380.5ZM451.604 380.5L448.61 380.5L448.61 381.5L451.604 381.5L451.604 380.5ZM445.616 380.5L442.622 380.5L442.622 381.5L445.616 381.5L445.616 380.5ZM439.628 380.5L436.634 380.5L436.634 381.5L439.628 381.5L439.628 380.5ZM433.64 380.5L430.646 380.5L430.646 381.5L433.64 381.5L433.64 380.5ZM427.652 380.5L424.658 380.5L424.658 381.5L427.652 381.5L427.652 380.5ZM421.664 380.5L418.67 380.5L418.67 381.5L421.664 381.5L421.664 380.5ZM415.676 380.5L412.682 380.5L412.682 381.5L415.676 381.5L415.676 380.5ZM409.687 380.5L406.693 380.5L406.693 381.5L409.687 381.5L409.687 380.5ZM403.699 380.5L400.705 380.5L400.705 381.5L403.699 381.5L403.699 380.5ZM397.711 380.5L394.717 380.5L394.717 381.5L397.711 381.5L397.711 380.5ZM391.723 380.5L388.729 380.5L388.729 381.5L391.723 381.5L391.723 380.5ZM385.735 380.5L382.741 380.5L382.741 381.5L385.735 381.5L385.735 380.5ZM379.747 380.5L376.753 380.5L376.753 381.5L379.747 381.5L379.747 380.5ZM373.759 380.5L370.765 380.5L370.765 381.5L373.759 381.5L373.759 380.5ZM367.771 380.5L364.777 380.5L364.777 381.5L367.771 381.5L367.771 380.5ZM361.783 380.5L358.789 380.5L358.789 381.5L361.783 381.5L361.783 380.5ZM355.795 380.5L352.801 380.5L352.801 381.5L355.795 381.5L355.795 380.5ZM349.806 380.5L346.812 380.5L346.812 381.5L349.806 381.5L349.806 380.5ZM343.818 380.5L340.824 380.5L340.824 381.5L343.818 381.5L343.818 380.5ZM337.83 380.5L334.836 380.5L334.836 381.5L337.83 381.5L337.83 380.5ZM331.842 380.5L328.848 380.5L328.848 381.5L331.842 381.5L331.842 380.5ZM325.854 380.5L322.86 380.5L322.86 381.5L325.854 381.5L325.854 380.5ZM319.866 380.5L316.872 380.5L316.872 381.5L319.866 381.5L319.866 380.5ZM313.878 380.5L310.884 380.5L310.884 381.5L313.878 381.5L313.878 380.5ZM307.89 380.5L304.896 380.5L304.896 381.5L307.89 381.5L307.89 380.5ZM301.902 380.5L298.908 380.5L298.908 381.5L301.902 381.5L301.902 380.5ZM295.914 380.5L292.92 380.5L292.92 381.5L295.914 381.5L295.914 380.5ZM289.926 380.5L286.931 380.5L286.931 381.5L289.926 381.5L289.926 380.5ZM283.937 380.5L280.943 380.5L280.943 381.5L283.937 381.5L283.937 380.5ZM277.949 380.5L274.955 380.5L274.955 381.5L277.949 381.5L277.949 380.5ZM271.961 380.5L268.967 380.5L268.967 381.5L271.961 381.5L271.961 380.5ZM265.973 380.5L262.979 380.5L262.979 381.5L265.973 381.5L265.973 380.5ZM259.985 380.5L256.991 380.5L256.991 381.5L259.985 381.5L259.985 380.5ZM253.997 380.5L251.003 380.5L251.003 381.5L253.997 381.5L253.997 380.5ZM248.009 380.5L245.015 380.5L245.015 381.5L248.009 381.5L248.009 380.5ZM242.021 380.5L239.027 380.5L239.027 381.5L242.021 381.5L242.021 380.5ZM236.033 380.5L233.039 380.5L233.039 381.5L236.033 381.5L236.033 380.5ZM230.045 380.5L227.05 380.5L227.05 381.5L230.045 381.5L230.045 380.5ZM224.056 380.5L221.062 380.5L221.062 381.5L224.056 381.5L224.056 380.5ZM218.068 380.5L215.074 380.5L215.074 381.5L218.068 381.5L218.068 380.5ZM212.08 380.5L209.086 380.5L209.086 381.5L212.08 381.5L212.08 380.5ZM206.092 380.5L203.098 380.5L203.098 381.5L206.092 381.5L206.092 380.5ZM200.104 380.5L197.11 380.5L197.11 381.5L200.104 381.5L200.104 380.5ZM194.116 380.5L191.122 380.5L191.122 381.5L194.116 381.5L194.116 380.5ZM188.128 380.5L185.134 380.5L185.134 381.5L188.128 381.5L188.128 380.5ZM182.14 380.5L179.146 380.5L179.146 381.5L182.14 381.5L182.14 380.5ZM176.152 380.5L173.158 380.5L173.158 381.5L176.152 381.5L176.152 380.5ZM170.164 380.5L167.17 380.5L167.17 381.5L170.164 381.5L170.164 380.5ZM164.175 380.5L161.181 380.5L161.181 381.5L164.175 381.5L164.175 380.5ZM158.187 380.5L155.193 380.5L155.193 381.5L158.187 381.5L158.187 380.5ZM152.199 380.5L149.205 380.5L149.205 381.5L152.199 381.5L152.199 380.5ZM146.211 380.5L143.217 380.5L143.217 381.5L146.211 381.5L146.211 380.5ZM140.223 380.5L137.229 380.5L137.229 381.5L140.223 381.5L140.223 380.5ZM134.235 380.5L131.241 380.5L131.241 381.5L134.235 381.5L134.235 380.5ZM128.247 380.5L125.253 380.5L125.253 381.5L128.247 381.5L128.247 380.5ZM122.259 380.5L119.265 380.5L119.265 381.5L122.259 381.5L122.259 380.5ZM116.271 380.5L113.277 380.5L113.277 381.5L116.271 381.5L116.271 380.5ZM110.283 380.5L107.289 380.5L107.289 381.5L110.283 381.5L110.283 380.5ZM104.294 380.5L101.3 380.5L101.3 381.5L104.294 381.5L104.294 380.5ZM98.3064 380.5L95.3123 380.5L95.3123 381.5L98.3064 381.5L98.3064 380.5ZM92.3183 380.5L89.3242 380.5L89.3242 381.5L92.3183 381.5L92.3183 380.5ZM86.3302 380.5L83.3361 380.5L83.3361 381.5L86.3302 381.5L86.3302 380.5ZM80.3421 380.5L77.348 380.5L77.348 381.5L80.3421 381.5L80.3421 380.5ZM74.354 380.5L71.3599 380.5L71.3599 381.5L74.354 381.5L74.354 380.5ZM68.3659 380.5L65.3718 380.5L65.3718 381.5L68.3659 381.5L68.3659 380.5ZM62.3778 380.5L59.3837 380.5L59.3837 381.5L62.3778 381.5L62.3778 380.5ZM56.3897 380.5L53.3956 380.5L53.3956 381.5L56.3897 381.5L56.3897 380.5ZM50.4016 380.5L47.4075 380.5L47.4075 381.5L50.4016 381.5L50.4016 380.5ZM44.4135 380.5L41.4194 380.5L41.4194 381.5L44.4135 381.5L44.4135 380.5ZM38.4254 380.5L35.4313 380.5L35.4313 381.5L38.4254 381.5L38.4254 380.5ZM32.4373 380.5L29.4433 380.5L29.4433 381.5L32.4373 381.5L32.4373 380.5ZM26.4492 380.5L23.4552 380.5L23.4552 381.5L26.4492 381.5L26.4492 380.5ZM20.4611 380.5L17.4671 380.5L17.4671 381.5L20.4611 381.5L20.4611 380.5ZM14.473 380.5L11.479 380.5L11.479 381.5L14.473 381.5L14.473 380.5ZM8.48491 380.5L5.49086 380.5L5.49086 381.5L8.48491 381.5L8.48491 380.5ZM2.49681 380.5L0.999983 380.5L0.999983 381.5L2.49681 381.5L2.49681 380.5Z" fill="black"/>
</svg>
