<svg width="219" height="204" viewBox="0 0 219 204" fill="none" xmlns="http://www.w3.org/2000/svg">
<path d="M0.999991 200L0.499991 200L0.499991 200.5L0.999991 200.5L0.999991 200ZM218.354 200.354C218.549 200.158 218.549 199.842 218.354 199.646L215.172 196.464C214.976 196.269 214.66 196.269 214.464 196.464C214.269 196.66 214.269 196.976 214.464 197.172L217.293 200L214.464 202.828C214.269 203.024 214.269 203.34 214.464 203.536C214.66 203.731 214.976 203.731 215.172 203.536L218.354 200.354ZM0.5 -9.50723e-06L0.5 1.51514L1.5 1.51514L1.5 -9.46352e-06L0.5 -9.50723e-06ZM0.5 4.54544L0.5 7.57575L1.5 7.57575L1.5 4.54545L0.5 4.54544ZM0.5 10.6061L0.499999 13.6364L1.5 13.6364L1.5 10.6061L0.5 10.6061ZM0.499999 16.6667L0.499999 19.697L1.5 19.697L1.5 16.6667L0.499999 16.6667ZM0.499999 22.7273L0.499999 25.7576L1.5 25.7576L1.5 22.7273L0.499999 22.7273ZM0.499999 28.7879L0.499999 31.8182L1.5 31.8182L1.5 28.7879L0.499999 28.7879ZM0.499998 34.8485L0.499998 37.8788L1.5 37.8788L1.5 34.8485L0.499998 34.8485ZM0.499998 40.9091L0.499998 43.9394L1.5 43.9394L1.5 40.9091L0.499998 40.9091ZM0.499998 46.9697L0.499998 50L1.5 50L1.5 46.9697L0.499998 46.9697ZM0.499998 53.0303L0.499998 56.0606L1.5 56.0606L1.5 53.0303L0.499998 53.0303ZM0.499997 59.0909L0.499997 62.1212L1.5 62.1212L1.5 59.0909L0.499997 59.0909ZM0.499997 65.1515L0.499997 68.1818L1.5 68.1818L1.5 65.1515L0.499997 65.1515ZM0.499997 71.2121L0.499997 74.2424L1.5 74.2424L1.5 71.2121L0.499997 71.2121ZM0.499997 77.2727L0.499996 80.303L1.5 80.303L1.5 77.2727L0.499997 77.2727ZM0.499996 83.3333L0.499996 86.3636L1.5 86.3636L1.5 83.3333L0.499996 83.3333ZM0.499996 89.3939L0.499996 92.4243L1.5 92.4243L1.5 89.3939L0.499996 89.3939ZM0.499996 95.4546L0.499996 98.4849L1.5 98.4849L1.5 95.4546L0.499996 95.4546ZM0.499996 101.515L0.499995 104.545L1.5 104.545L1.5 101.515L0.499996 101.515ZM0.499995 107.576L0.499995 110.606L1.5 110.606L1.5 107.576L0.499995 107.576ZM0.499995 113.636L0.499995 116.667L1.49999 116.667L1.5 113.636L0.499995 113.636ZM0.499995 119.697L0.499995 122.727L1.49999 122.727L1.49999 119.697L0.499995 119.697ZM0.499995 125.758L0.499994 128.788L1.49999 128.788L1.49999 125.758L0.499995 125.758ZM0.499994 131.818L0.499994 134.849L1.49999 134.849L1.49999 131.818L0.499994 131.818ZM0.499994 137.879L0.499994 140.909L1.49999 140.909L1.49999 137.879L0.499994 137.879ZM0.499994 143.939L0.499994 146.97L1.49999 146.97L1.49999 143.939L0.499994 143.939ZM0.499993 150L0.499993 153.03L1.49999 153.03L1.49999 150L0.499993 150ZM0.499993 156.061L0.499993 159.091L1.49999 159.091L1.49999 156.061L0.499993 156.061ZM0.499993 162.121L0.499993 165.152L1.49999 165.152L1.49999 162.121L0.499993 162.121ZM0.499993 168.182L0.499993 171.212L1.49999 171.212L1.49999 168.182L0.499993 168.182ZM0.499992 174.242L0.499992 177.273L1.49999 177.273L1.49999 174.242L0.499992 174.242ZM0.499992 180.303L0.499992 183.333L1.49999 183.333L1.49999 180.303L0.499992 180.303ZM0.499992 186.364L0.499992 189.394L1.49999 189.394L1.49999 186.364L0.499992 186.364ZM0.499992 192.424L0.499991 195.455L1.49999 195.455L1.49999 192.424L0.499992 192.424ZM0.499991 198.485L0.499991 200L1.49999 200L1.49999 198.485L0.499991 198.485ZM0.999991 200.5L2.50693 200.5L2.50693 199.5L0.999991 199.5L0.999991 200.5ZM5.52082 200.5L8.53472 200.5L8.53472 199.5L5.52082 199.5L5.52082 200.5ZM11.5486 200.5L14.5625 200.5L14.5625 199.5L11.5486 199.5L11.5486 200.5ZM17.5764 200.5L20.5903 200.5L20.5903 199.5L17.5764 199.5L17.5764 200.5ZM23.6042 200.5L26.618 200.5L26.618 199.5L23.6042 199.5L23.6042 200.5ZM29.6319 200.5L32.6458 200.5L32.6458 199.5L29.6319 199.5L29.6319 200.5ZM35.6597 200.5L38.6736 200.5L38.6736 199.5L35.6597 199.5L35.6597 200.5ZM41.6875 200.5L44.7014 200.5L44.7014 199.5L41.6875 199.5L41.6875 200.5ZM47.7153 200.5L50.7292 200.5L50.7292 199.5L47.7153 199.5L47.7153 200.5ZM53.743 200.5L56.7569 200.5L56.7569 199.5L53.743 199.5L53.743 200.5ZM59.7708 200.5L62.7847 200.5L62.7847 199.5L59.7708 199.5L59.7708 200.5ZM65.7986 200.5L68.8125 200.5L68.8125 199.5L65.7986 199.5L65.7986 200.5ZM71.8264 200.5L74.8403 200.5L74.8403 199.5L71.8264 199.5L71.8264 200.5ZM77.8541 200.5L80.868 200.5L80.868 199.5L77.8541 199.5L77.8541 200.5ZM83.8819 200.5L86.8958 200.5L86.8958 199.5L83.8819 199.5L83.8819 200.5ZM89.9097 200.5L92.9236 200.5L92.9236 199.5L89.9097 199.5L89.9097 200.5ZM95.9375 200.5L98.9513 200.5L98.9513 199.5L95.9375 199.5L95.9375 200.5ZM101.965 200.5L104.979 200.5L104.979 199.5L101.965 199.5L101.965 200.5ZM107.993 200.5L111.007 200.5L111.007 199.5L107.993 199.5L107.993 200.5ZM114.021 200.5L117.035 200.5L117.035 199.5L114.021 199.5L114.021 200.5ZM120.049 200.5L123.062 200.5L123.062 199.5L120.049 199.5L120.049 200.5ZM126.076 200.5L129.09 200.5L129.09 199.5L126.076 199.5L126.076 200.5ZM132.104 200.5L135.118 200.5L135.118 199.5L132.104 199.5L132.104 200.5ZM138.132 200.5L141.146 200.5L141.146 199.5L138.132 199.5L138.132 200.5ZM144.16 200.5L147.174 200.5L147.174 199.5L144.16 199.5L144.16 200.5ZM150.187 200.5L153.201 200.5L153.201 199.5L150.187 199.5L150.187 200.5ZM156.215 200.5L159.229 200.5L159.229 199.5L156.215 199.5L156.215 200.5ZM162.243 200.5L165.257 200.5L165.257 199.5L162.243 199.5L162.243 200.5ZM168.271 200.5L171.285 200.5L171.285 199.5L168.271 199.5L168.271 200.5ZM174.298 200.5L177.312 200.5L177.312 199.5L174.298 199.5L174.298 200.5ZM180.326 200.5L183.34 200.5L183.34 199.5L180.326 199.5L180.326 200.5ZM186.354 200.5L189.368 200.5L189.368 199.5L186.354 199.5L186.354 200.5ZM192.382 200.5L195.396 200.5L195.396 199.5L192.382 199.5L192.382 200.5ZM198.41 200.5L201.423 200.5L201.423 199.5L198.41 199.5L198.41 200.5ZM204.437 200.5L207.451 200.5L207.451 199.5L204.437 199.5L204.437 200.5ZM210.465 200.5L213.479 200.5L213.479 199.5L210.465 199.5L210.465 200.5ZM216.493 200.5L218 200.5L218 199.5L216.493 199.5L216.493 200.5Z" fill="black"/>
</svg>
