<svg width="505" height="451" viewBox="0 0 505 451" fill="none" xmlns="http://www.w3.org/2000/svg">
<path d="M504 447L504 447.5L504.5 447.5L504.5 447L504 447ZM0.646465 446.646C0.451183 446.842 0.451183 447.158 0.646465 447.354L3.82844 450.536C4.02369 450.731 4.34028 450.731 4.53553 450.536C4.73082 450.34 4.73082 450.024 4.53553 449.828L1.7071 447L4.53553 444.172C4.73082 443.976 4.73082 443.66 4.53553 443.464C4.34028 443.269 4.02369 443.269 3.82844 443.464L0.646465 446.646ZM503.5 2.0208e-08L503.5 1.49L504.5 1.49L504.5 -2.02113e-08L503.5 2.0208e-08ZM503.5 4.47L503.5 7.45L504.5 7.45L504.5 4.47L503.5 4.47ZM503.5 10.43L503.5 13.41L504.5 13.41L504.5 10.43L503.5 10.43ZM503.5 16.39L503.5 19.37L504.5 19.37L504.5 16.39L503.5 16.39ZM503.5 22.35L503.5 25.33L504.5 25.33L504.5 22.35L503.5 22.35ZM503.5 28.31L503.5 31.29L504.5 31.29L504.5 28.31L503.5 28.31ZM503.5 34.27L503.5 37.25L504.5 37.25L504.5 34.27L503.5 34.27ZM503.5 40.23L503.5 43.21L504.5 43.21L504.5 40.23L503.5 40.23ZM503.5 46.19L503.5 49.17L504.5 49.17L504.5 46.19L503.5 46.19ZM503.5 52.15L503.5 55.13L504.5 55.13L504.5 52.15L503.5 52.15ZM503.5 58.11L503.5 61.09L504.5 61.09L504.5 58.11L503.5 58.11ZM503.5 64.07L503.5 67.05L504.5 67.05L504.5 64.07L503.5 64.07ZM503.5 70.03L503.5 73.01L504.5 73.01L504.5 70.03L503.5 70.03ZM503.5 75.99L503.5 78.97L504.5 78.97L504.5 75.99L503.5 75.99ZM503.5 81.95L503.5 84.93L504.5 84.93L504.5 81.95L503.5 81.95ZM503.5 87.91L503.5 90.89L504.5 90.89L504.5 87.91L503.5 87.91ZM503.5 93.87L503.5 96.85L504.5 96.85L504.5 93.87L503.5 93.87ZM503.5 99.83L503.5 102.81L504.5 102.81L504.5 99.83L503.5 99.83ZM503.5 105.79L503.5 108.77L504.5 108.77L504.5 105.79L503.5 105.79ZM503.5 111.75L503.5 114.73L504.5 114.73L504.5 111.75L503.5 111.75ZM503.5 117.71L503.5 120.69L504.5 120.69L504.5 117.71L503.5 117.71ZM503.5 123.67L503.5 126.65L504.5 126.65L504.5 123.67L503.5 123.67ZM503.5 129.63L503.5 132.61L504.5 132.61L504.5 129.63L503.5 129.63ZM503.5 135.59L503.5 138.57L504.5 138.57L504.5 135.59L503.5 135.59ZM503.5 141.55L503.5 144.53L504.5 144.53L504.5 141.55L503.5 141.55ZM503.5 147.51L503.5 150.49L504.5 150.49L504.5 147.51L503.5 147.51ZM503.5 153.47L503.5 156.45L504.5 156.45L504.5 153.47L503.5 153.47ZM503.5 159.43L503.5 162.41L504.5 162.41L504.5 159.43L503.5 159.43ZM503.5 165.39L503.5 168.37L504.5 168.37L504.5 165.39L503.5 165.39ZM503.5 171.35L503.5 174.33L504.5 174.33L504.5 171.35L503.5 171.35ZM503.5 177.31L503.5 180.29L504.5 180.29L504.5 177.31L503.5 177.31ZM503.5 183.27L503.5 186.25L504.5 186.25L504.5 183.27L503.5 183.27ZM503.5 189.23L503.5 192.21L504.5 192.21L504.5 189.23L503.5 189.23ZM503.5 195.19L503.5 198.17L504.5 198.17L504.5 195.19L503.5 195.19ZM503.5 201.15L503.5 204.13L504.5 204.13L504.5 201.15L503.5 201.15ZM503.5 207.11L503.5 210.09L504.5 210.09L504.5 207.11L503.5 207.11ZM503.5 213.07L503.5 216.05L504.5 216.05L504.5 213.07L503.5 213.07ZM503.5 219.03L503.5 222.01L504.5 222.01L504.5 219.03L503.5 219.03ZM503.5 224.99L503.5 227.97L504.5 227.97L504.5 224.99L503.5 224.99ZM503.5 230.95L503.5 233.93L504.5 233.93L504.5 230.95L503.5 230.95ZM503.5 236.91L503.5 239.89L504.5 239.89L504.5 236.91L503.5 236.91ZM503.5 242.87L503.5 245.85L504.5 245.85L504.5 242.87L503.5 242.87ZM503.5 248.83L503.5 251.81L504.5 251.81L504.5 248.83L503.5 248.83ZM503.5 254.79L503.5 257.77L504.5 257.77L504.5 254.79L503.5 254.79ZM503.5 260.75L503.5 263.73L504.5 263.73L504.5 260.75L503.5 260.75ZM503.5 266.71L503.5 269.69L504.5 269.69L504.5 266.71L503.5 266.71ZM503.5 272.67L503.5 275.65L504.5 275.65L504.5 272.67L503.5 272.67ZM503.5 278.63L503.5 281.61L504.5 281.61L504.5 278.63L503.5 278.63ZM503.5 284.59L503.5 287.57L504.5 287.57L504.5 284.59L503.5 284.59ZM503.5 290.55L503.5 293.53L504.5 293.53L504.5 290.55L503.5 290.55ZM503.5 296.51L503.5 299.49L504.5 299.49L504.5 296.51L503.5 296.51ZM503.5 302.47L503.5 305.45L504.5 305.45L504.5 302.47L503.5 302.47ZM503.5 308.43L503.5 311.41L504.5 311.41L504.5 308.43L503.5 308.43ZM503.5 314.39L503.5 317.37L504.5 317.37L504.5 314.39L503.5 314.39ZM503.5 320.35L503.5 323.33L504.5 323.33L504.5 320.35L503.5 320.35ZM503.5 326.31L503.5 329.29L504.5 329.29L504.5 326.31L503.5 326.31ZM503.5 332.27L503.5 335.25L504.5 335.25L504.5 332.27L503.5 332.27ZM503.5 338.23L503.5 341.21L504.5 341.21L504.5 338.23L503.5 338.23ZM503.5 344.19L503.5 347.17L504.5 347.17L504.5 344.19L503.5 344.19ZM503.5 350.15L503.5 353.13L504.5 353.13L504.5 350.15L503.5 350.15ZM503.5 356.11L503.5 359.09L504.5 359.09L504.5 356.11L503.5 356.11ZM503.5 362.07L503.5 365.05L504.5 365.05L504.5 362.07L503.5 362.07ZM503.5 368.03L503.5 371.01L504.5 371.01L504.5 368.03L503.5 368.03ZM503.5 373.99L503.5 376.97L504.5 376.97L504.5 373.99L503.5 373.99ZM503.5 379.95L503.5 382.93L504.5 382.93L504.5 379.95L503.5 379.95ZM503.5 385.91L503.5 388.89L504.5 388.89L504.5 385.91L503.5 385.91ZM503.5 391.87L503.5 394.85L504.5 394.85L504.5 391.87L503.5 391.87ZM503.5 397.83L503.5 400.81L504.5 400.81L504.5 397.83L503.5 397.83ZM503.5 403.79L503.5 406.77L504.5 406.77L504.5 403.79L503.5 403.79ZM503.5 409.75L503.5 412.73L504.5 412.73L504.5 409.75L503.5 409.75ZM503.5 415.71L503.5 418.69L504.5 418.69L504.5 415.71L503.5 415.71ZM503.5 421.671L503.5 424.65L504.5 424.65L504.5 421.671L503.5 421.671ZM503.5 427.631L503.5 430.611L504.5 430.611L504.5 427.631L503.5 427.631ZM503.5 433.591L503.5 436.571L504.5 436.571L504.5 433.591L503.5 433.591ZM503.5 439.551L503.5 442.531L504.5 442.531L504.5 439.551L503.5 439.551ZM503.5 445.511L503.5 447L504.5 447L504.5 445.511L503.5 445.511ZM504 446.5L502.503 446.5L502.503 447.5L504 447.5L504 446.5ZM499.509 446.5L496.515 446.5L496.515 447.5L499.509 447.5L499.509 446.5ZM493.521 446.5L490.527 446.5L490.527 447.5L493.521 447.5L493.521 446.5ZM487.533 446.5L484.539 446.5L484.539 447.5L487.533 447.5L487.533 446.5ZM481.545 446.5L478.551 446.5L478.551 447.5L481.545 447.5L481.545 446.5ZM475.557 446.5L472.562 446.5L472.562 447.5L475.557 447.5L475.557 446.5ZM469.568 446.5L466.574 446.5L466.574 447.5L469.568 447.5L469.568 446.5ZM463.58 446.5L460.586 446.5L460.586 447.5L463.58 447.5L463.58 446.5ZM457.592 446.5L454.598 446.5L454.598 447.5L457.592 447.5L457.592 446.5ZM451.604 446.5L448.61 446.5L448.61 447.5L451.604 447.5L451.604 446.5ZM445.616 446.5L442.622 446.5L442.622 447.5L445.616 447.5L445.616 446.5ZM439.628 446.5L436.634 446.5L436.634 447.5L439.628 447.5L439.628 446.5ZM433.64 446.5L430.646 446.5L430.646 447.5L433.64 447.5L433.64 446.5ZM427.652 446.5L424.658 446.5L424.658 447.5L427.652 447.5L427.652 446.5ZM421.664 446.5L418.67 446.5L418.67 447.5L421.664 447.5L421.664 446.5ZM415.676 446.5L412.682 446.5L412.682 447.5L415.676 447.5L415.676 446.5ZM409.687 446.5L406.693 446.5L406.693 447.5L409.687 447.5L409.687 446.5ZM403.699 446.5L400.705 446.5L400.705 447.5L403.699 447.5L403.699 446.5ZM397.711 446.5L394.717 446.5L394.717 447.5L397.711 447.5L397.711 446.5ZM391.723 446.5L388.729 446.5L388.729 447.5L391.723 447.5L391.723 446.5ZM385.735 446.5L382.741 446.5L382.741 447.5L385.735 447.5L385.735 446.5ZM379.747 446.5L376.753 446.5L376.753 447.5L379.747 447.5L379.747 446.5ZM373.759 446.5L370.765 446.5L370.765 447.5L373.759 447.5L373.759 446.5ZM367.771 446.5L364.777 446.5L364.777 447.5L367.771 447.5L367.771 446.5ZM361.783 446.5L358.789 446.5L358.789 447.5L361.783 447.5L361.783 446.5ZM355.795 446.5L352.801 446.5L352.801 447.5L355.795 447.5L355.795 446.5ZM349.806 446.5L346.812 446.5L346.812 447.5L349.806 447.5L349.806 446.5ZM343.818 446.5L340.824 446.5L340.824 447.5L343.818 447.5L343.818 446.5ZM337.83 446.5L334.836 446.5L334.836 447.5L337.83 447.5L337.83 446.5ZM331.842 446.5L328.848 446.5L328.848 447.5L331.842 447.5L331.842 446.5ZM325.854 446.5L322.86 446.5L322.86 447.5L325.854 447.5L325.854 446.5ZM319.866 446.5L316.872 446.5L316.872 447.5L319.866 447.5L319.866 446.5ZM313.878 446.5L310.884 446.5L310.884 447.5L313.878 447.5L313.878 446.5ZM307.89 446.5L304.896 446.5L304.896 447.5L307.89 447.5L307.89 446.5ZM301.902 446.5L298.908 446.5L298.908 447.5L301.902 447.5L301.902 446.5ZM295.914 446.5L292.92 446.5L292.92 447.5L295.914 447.5L295.914 446.5ZM289.926 446.5L286.931 446.5L286.931 447.5L289.926 447.5L289.926 446.5ZM283.937 446.5L280.943 446.5L280.943 447.5L283.937 447.5L283.937 446.5ZM277.949 446.5L274.955 446.5L274.955 447.5L277.949 447.5L277.949 446.5ZM271.961 446.5L268.967 446.5L268.967 447.5L271.961 447.5L271.961 446.5ZM265.973 446.5L262.979 446.5L262.979 447.5L265.973 447.5L265.973 446.5ZM259.985 446.5L256.991 446.5L256.991 447.5L259.985 447.5L259.985 446.5ZM253.997 446.5L251.003 446.5L251.003 447.5L253.997 447.5L253.997 446.5ZM248.009 446.5L245.015 446.5L245.015 447.5L248.009 447.5L248.009 446.5ZM242.021 446.5L239.027 446.5L239.027 447.5L242.021 447.5L242.021 446.5ZM236.033 446.5L233.039 446.5L233.039 447.5L236.033 447.5L236.033 446.5ZM230.045 446.5L227.05 446.5L227.05 447.5L230.045 447.5L230.045 446.5ZM224.056 446.5L221.062 446.5L221.062 447.5L224.056 447.5L224.056 446.5ZM218.068 446.5L215.074 446.5L215.074 447.5L218.068 447.5L218.068 446.5ZM212.08 446.5L209.086 446.5L209.086 447.5L212.08 447.5L212.08 446.5ZM206.092 446.5L203.098 446.5L203.098 447.5L206.092 447.5L206.092 446.5ZM200.104 446.5L197.11 446.5L197.11 447.5L200.104 447.5L200.104 446.5ZM194.116 446.5L191.122 446.5L191.122 447.5L194.116 447.5L194.116 446.5ZM188.128 446.5L185.134 446.5L185.134 447.5L188.128 447.5L188.128 446.5ZM182.14 446.5L179.146 446.5L179.146 447.5L182.14 447.5L182.14 446.5ZM176.152 446.5L173.158 446.5L173.158 447.5L176.152 447.5L176.152 446.5ZM170.164 446.5L167.17 446.5L167.17 447.5L170.164 447.5L170.164 446.5ZM164.175 446.5L161.181 446.5L161.181 447.5L164.175 447.5L164.175 446.5ZM158.187 446.5L155.193 446.5L155.193 447.5L158.187 447.5L158.187 446.5ZM152.199 446.5L149.205 446.5L149.205 447.5L152.199 447.5L152.199 446.5ZM146.211 446.5L143.217 446.5L143.217 447.5L146.211 447.5L146.211 446.5ZM140.223 446.5L137.229 446.5L137.229 447.5L140.223 447.5L140.223 446.5ZM134.235 446.5L131.241 446.5L131.241 447.5L134.235 447.5L134.235 446.5ZM128.247 446.5L125.253 446.5L125.253 447.5L128.247 447.5L128.247 446.5ZM122.259 446.5L119.265 446.5L119.265 447.5L122.259 447.5L122.259 446.5ZM116.271 446.5L113.277 446.5L113.277 447.5L116.271 447.5L116.271 446.5ZM110.283 446.5L107.289 446.5L107.289 447.5L110.283 447.5L110.283 446.5ZM104.294 446.5L101.3 446.5L101.3 447.5L104.294 447.5L104.294 446.5ZM98.3064 446.5L95.3123 446.5L95.3123 447.5L98.3064 447.5L98.3064 446.5ZM92.3183 446.5L89.3242 446.5L89.3242 447.5L92.3183 447.5L92.3183 446.5ZM86.3302 446.5L83.3361 446.5L83.3361 447.5L86.3302 447.5L86.3302 446.5ZM80.3421 446.5L77.348 446.5L77.348 447.5L80.3421 447.5L80.3421 446.5ZM74.354 446.5L71.3599 446.5L71.3599 447.5L74.354 447.5L74.354 446.5ZM68.3659 446.5L65.3718 446.5L65.3718 447.5L68.3659 447.5L68.3659 446.5ZM62.3778 446.5L59.3837 446.5L59.3837 447.5L62.3778 447.5L62.3778 446.5ZM56.3897 446.5L53.3956 446.5L53.3956 447.5L56.3897 447.5L56.3897 446.5ZM50.4016 446.5L47.4075 446.5L47.4075 447.5L50.4016 447.5L50.4016 446.5ZM44.4135 446.5L41.4194 446.5L41.4194 447.5L44.4135 447.5L44.4135 446.5ZM38.4254 446.5L35.4313 446.5L35.4313 447.5L38.4254 447.5L38.4254 446.5ZM32.4373 446.5L29.4432 446.5L29.4432 447.5L32.4373 447.5L32.4373 446.5ZM26.4492 446.5L23.4552 446.5L23.4552 447.5L26.4492 447.5L26.4492 446.5ZM20.4611 446.5L17.4671 446.5L17.4671 447.5L20.4611 447.5L20.4611 446.5ZM14.473 446.5L11.479 446.5L11.479 447.5L14.473 447.5L14.473 446.5ZM8.4849 446.5L5.49086 446.5L5.49086 447.5L8.4849 447.5L8.4849 446.5ZM2.49681 446.5L1.00001 446.5L1.00001 447.5L2.49681 447.5L2.49681 446.5Z" fill="black"/>
</svg>
