<svg width="515" height="396" viewBox="0 0 515 396" fill="none" xmlns="http://www.w3.org/2000/svg">
<path d="M0.999189 392L0.499189 392L0.499189 392.5L0.999189 392.5L0.999189 392ZM514.354 392.354C514.549 392.158 514.549 391.842 514.354 391.646L511.172 388.464C510.976 388.269 510.66 388.269 510.464 388.464C510.269 388.66 510.269 388.976 510.464 389.172L513.293 392L510.464 394.828C510.269 395.024 510.269 395.34 510.464 395.536C510.66 395.731 510.976 395.731 511.172 395.536L514.354 392.354ZM0.499084 -2.22901e-05L0.499084 1.50767L1.49908 1.50767L1.49908 -2.25578e-05L0.499084 -2.22901e-05ZM0.499084 4.52305L0.499084 7.53844L1.49908 7.53844L1.49908 4.52305L0.499084 4.52305ZM0.499084 10.5538L0.499084 13.5692L1.49908 13.5692L1.49908 10.5538L0.499084 10.5538ZM0.499084 16.5846L0.499084 19.6L1.49908 19.6L1.49908 16.5846L0.499084 16.5846ZM0.499083 22.6154L0.499083 25.6307L1.49908 25.6307L1.49908 22.6154L0.499083 22.6154ZM0.499083 28.6461L0.499083 31.6615L1.49908 31.6615L1.49908 28.6461L0.499083 28.6461ZM0.499083 34.6769L0.499083 37.6923L1.49908 37.6923L1.49908 34.6769L0.499083 34.6769ZM0.499083 40.7077L0.499083 43.7231L1.49908 43.7231L1.49908 40.7077L0.499083 40.7077ZM0.499082 46.7384L0.499082 49.7538L1.49908 49.7538L1.49908 46.7384L0.499082 46.7384ZM0.499082 52.7692L0.499082 55.7846L1.49908 55.7846L1.49908 52.7692L0.499082 52.7692ZM0.499082 58.8L0.499082 61.8154L1.49908 61.8154L1.49908 58.8L0.499082 58.8ZM0.499082 64.8307L0.499082 67.8461L1.49908 67.8461L1.49908 64.8307L0.499082 64.8307ZM0.499081 70.8615L0.499081 73.8769L1.49908 73.8769L1.49908 70.8615L0.499081 70.8615ZM0.499081 76.8923L0.499081 79.9077L1.49908 79.9077L1.49908 76.8923L0.499081 76.8923ZM0.499081 82.923L0.499081 85.9384L1.49908 85.9384L1.49908 82.923L0.499081 82.923ZM0.499081 88.9538L0.49908 91.9692L1.49908 91.9692L1.49908 88.9538L0.499081 88.9538ZM0.49908 94.9846L0.49908 97.9999L1.49908 97.9999L1.49908 94.9846L0.49908 94.9846ZM0.499141 101.015L0.499141 104.031L1.49914 104.031L1.49914 101.015L0.499141 101.015ZM0.499141 107.046L0.499141 110.061L1.49914 110.061L1.49914 107.046L0.499141 107.046ZM0.499141 113.077L0.49914 116.092L1.49914 116.092L1.49914 113.077L0.499141 113.077ZM0.49914 119.108L0.49914 122.123L1.49914 122.123L1.49914 119.108L0.49914 119.108ZM0.49914 125.138L0.49914 128.154L1.49914 128.154L1.49914 125.138L0.49914 125.138ZM0.49914 131.169L0.49914 134.185L1.49914 134.185L1.49914 131.169L0.49914 131.169ZM0.49914 137.2L0.499139 140.215L1.49914 140.215L1.49914 137.2L0.49914 137.2ZM0.499139 143.231L0.499139 146.246L1.49914 146.246L1.49914 143.231L0.499139 143.231ZM0.499139 149.261L0.499139 152.277L1.49914 152.277L1.49914 149.261L0.499139 149.261ZM0.499139 155.292L0.499139 158.308L1.49914 158.308L1.49914 155.292L0.499139 155.292ZM0.499138 161.323L0.499138 164.338L1.49914 164.338L1.49914 161.323L0.499138 161.323ZM0.499138 167.354L0.499138 170.369L1.49914 170.369L1.49914 167.354L0.499138 167.354ZM0.499138 173.384L0.499138 176.4L1.49914 176.4L1.49914 173.384L0.499138 173.384ZM0.499138 179.415L0.499138 182.431L1.49914 182.431L1.49914 179.415L0.499138 179.415ZM0.499137 185.446L0.499137 188.461L1.49914 188.461L1.49914 185.446L0.499137 185.446ZM0.499137 191.477L0.499137 194.492L1.49914 194.492L1.49914 191.477L0.499137 191.477ZM0.499137 197.508L0.499137 200.523L1.49914 200.523L1.49914 197.508L0.499137 197.508ZM0.499137 203.538L0.499136 206.554L1.49914 206.554L1.49914 203.538L0.499137 203.538ZM0.499136 209.569L0.499136 212.584L1.49914 212.584L1.49914 209.569L0.499136 209.569ZM0.499136 215.6L0.499136 218.615L1.49914 218.615L1.49914 215.6L0.499136 215.6ZM0.499136 221.631L0.499136 224.646L1.49914 224.646L1.49914 221.631L0.499136 221.631ZM0.499136 227.661L0.499135 230.677L1.49914 230.677L1.49914 227.661L0.499136 227.661ZM0.499135 233.692L0.499135 236.707L1.49914 236.707L1.49914 233.692L0.499135 233.692ZM0.499135 239.723L0.499135 242.738L1.49913 242.738L1.49914 239.723L0.499135 239.723ZM0.499135 245.754L0.499135 248.769L1.49913 248.769L1.49913 245.754L0.499135 245.754ZM0.499135 251.784L0.499134 254.8L1.49913 254.8L1.49913 251.784L0.499135 251.784ZM0.499134 257.815L0.499134 260.831L1.49913 260.831L1.49913 257.815L0.499134 257.815ZM0.499134 263.846L0.499134 266.861L1.49913 266.861L1.49913 263.846L0.499134 263.846ZM0.499134 269.877L0.499134 272.892L1.49913 272.892L1.49913 269.877L0.499134 269.877ZM0.499133 275.907L0.499133 278.923L1.49913 278.923L1.49913 275.907L0.499133 275.907ZM0.499133 281.938L0.499133 284.954L1.49913 284.954L1.49913 281.938L0.499133 281.938ZM0.499133 287.969L0.499133 290.984L1.49913 290.984L1.49913 287.969L0.499133 287.969ZM0.499133 294L0.499194 297.015L1.49919 297.015L1.49913 294L0.499133 294ZM0.499193 300.03L0.499193 303.046L1.49919 303.046L1.49919 300.03L0.499193 300.03ZM0.499193 306.061L0.499193 309.077L1.49919 309.077L1.49919 306.061L0.499193 306.061ZM0.499193 312.092L0.499193 315.107L1.49919 315.107L1.49919 312.092L0.499193 312.092ZM0.499193 318.123L0.499193 321.138L1.49919 321.138L1.49919 318.123L0.499193 318.123ZM0.499192 324.154L0.499192 327.169L1.49919 327.169L1.49919 324.154L0.499192 324.154ZM0.499192 330.184L0.499192 333.2L1.49919 333.2L1.49919 330.184L0.499192 330.184ZM0.499192 336.215L0.499192 339.23L1.49919 339.23L1.49919 336.215L0.499192 336.215ZM0.499192 342.246L0.499191 345.261L1.49919 345.261L1.49919 342.246L0.499192 342.246ZM0.499191 348.277L0.499191 351.292L1.49919 351.292L1.49919 348.277L0.499191 348.277ZM0.499191 354.307L0.499191 357.323L1.49919 357.323L1.49919 354.307L0.499191 354.307ZM0.499191 360.338L0.499191 363.353L1.49919 363.353L1.49919 360.338L0.499191 360.338ZM0.499191 366.369L0.49919 369.384L1.49919 369.384L1.49919 366.369L0.499191 366.369ZM0.49919 372.4L0.49919 375.415L1.49919 375.415L1.49919 372.4L0.49919 372.4ZM0.49919 378.43L0.49919 381.446L1.49919 381.446L1.49919 378.43L0.49919 378.43ZM0.49919 384.461L0.49919 387.477L1.49919 387.477L1.49919 384.461L0.49919 384.461ZM0.499189 390.492L0.499189 392L1.49919 392L1.49919 390.492L0.499189 390.492ZM0.999189 392.5L2.49046 392.5L2.49046 391.5L0.999189 391.5L0.999189 392.5ZM5.47304 392.5L8.45561 392.5L8.45561 391.5L5.47304 391.5L5.47304 392.5ZM11.4382 392.5L14.4207 392.5L14.4207 391.5L11.4382 391.5L11.4382 392.5ZM17.4033 392.5L20.3858 392.5L20.3858 391.5L17.4033 391.5L17.4033 392.5ZM23.3684 392.5L26.351 392.5L26.351 391.5L23.3684 391.5L23.3684 392.5ZM29.3335 392.5L32.3161 392.5L32.3161 391.5L29.3335 391.5L29.3335 392.5ZM35.2987 392.5L38.2812 392.5L38.2812 391.5L35.2987 391.5L35.2987 392.5ZM41.2638 392.5L44.2464 392.5L44.2464 391.5L41.2638 391.5L41.2638 392.5ZM47.2289 392.5L50.2115 392.5L50.2115 391.5L47.2289 391.5L47.2289 392.5ZM53.194 392.5L56.1766 392.5L56.1766 391.5L53.194 391.5L53.194 392.5ZM59.1592 392.5L62.1417 392.5L62.1417 391.5L59.1592 391.5L59.1592 392.5ZM65.1243 392.5L68.1069 392.5L68.1069 391.5L65.1243 391.5L65.1243 392.5ZM71.0894 392.5L74.072 392.5L74.072 391.5L71.0894 391.5L71.0894 392.5ZM77.0545 392.5L80.0371 392.5L80.0371 391.5L77.0545 391.5L77.0545 392.5ZM83.0196 392.5L86.0022 392.5L86.0022 391.5L83.0196 391.5L83.0196 392.5ZM88.9848 392.5L91.9673 392.5L91.9673 391.5L88.9848 391.5L88.9848 392.5ZM94.9499 392.5L97.9324 392.5L97.9324 391.5L94.9499 391.5L94.9499 392.5ZM100.915 392.5L103.898 392.5L103.898 391.5L100.915 391.5L100.915 392.5ZM106.88 392.5L109.863 392.5L109.863 391.5L106.88 391.5L106.88 392.5ZM112.845 392.5L115.828 392.5L115.828 391.5L112.845 391.5L112.845 392.5ZM118.81 392.5L121.793 392.5L121.793 391.5L118.81 391.5L118.81 392.5ZM124.775 392.5L127.758 392.5L127.758 391.5L124.775 391.5L124.775 392.5ZM130.741 392.5L133.723 392.5L133.723 391.5L130.741 391.5L130.741 392.5ZM136.706 392.5L139.688 392.5L139.688 391.5L136.706 391.5L136.706 392.5ZM142.671 392.5L145.653 392.5L145.653 391.5L142.671 391.5L142.671 392.5ZM148.636 392.5L151.619 392.5L151.619 391.5L148.636 391.5L148.636 392.5ZM154.601 392.5L157.584 392.5L157.584 391.5L154.601 391.5L154.601 392.5ZM160.566 392.5L163.549 392.5L163.549 391.5L160.566 391.5L160.566 392.5ZM166.531 392.5L169.514 392.5L169.514 391.5L166.531 391.5L166.531 392.5ZM172.496 392.5L175.479 392.5L175.479 391.5L172.496 391.5L172.496 392.5ZM178.462 392.5L181.444 392.5L181.444 391.5L178.462 391.5L178.462 392.5ZM184.427 392.5L187.409 392.5L187.409 391.5L184.427 391.5L184.427 392.5ZM190.392 392.5L193.374 392.5L193.374 391.5L190.392 391.5L190.392 392.5ZM196.357 392.5L199.339 392.5L199.339 391.5L196.357 391.5L196.357 392.5ZM202.322 392.5L205.305 392.5L205.305 391.5L202.322 391.5L202.322 392.5ZM208.287 392.5L211.27 392.5L211.27 391.5L208.287 391.5L208.287 392.5ZM214.252 392.5L217.235 392.5L217.235 391.5L214.252 391.5L214.252 392.5ZM220.217 392.5L223.2 392.5L223.2 391.5L220.217 391.5L220.217 392.5ZM226.183 392.5L229.165 392.5L229.165 391.5L226.183 391.5L226.183 392.5ZM232.148 392.5L235.13 392.5L235.13 391.5L232.148 391.5L232.148 392.5ZM238.113 392.5L241.095 392.5L241.095 391.5L238.113 391.5L238.113 392.5ZM244.078 392.5L247.06 392.5L247.06 391.5L244.078 391.5L244.078 392.5ZM250.043 392.5L253.026 392.5L253.026 391.5L250.043 391.5L250.043 392.5ZM256.008 392.5L258.991 392.5L258.991 391.5L256.008 391.5L256.008 392.5ZM261.973 392.5L264.956 392.5L264.956 391.5L261.973 391.5L261.973 392.5ZM267.938 392.5L270.921 392.5L270.921 391.5L267.938 391.5L267.938 392.5ZM273.904 392.5L276.886 392.5L276.886 391.5L273.904 391.5L273.904 392.5ZM279.869 392.5L282.851 392.5L282.851 391.5L279.869 391.5L279.869 392.5ZM285.834 392.5L288.816 392.5L288.816 391.5L285.834 391.5L285.834 392.5ZM291.799 392.5L294.782 392.5L294.782 391.5L291.799 391.5L291.799 392.5ZM297.764 392.5L300.747 392.5L300.747 391.5L297.764 391.5L297.764 392.5ZM303.729 392.5L306.712 392.5L306.712 391.5L303.729 391.5L303.729 392.5ZM309.694 392.5L312.677 392.5L312.677 391.5L309.694 391.5L309.694 392.5ZM315.66 392.5L318.642 392.5L318.642 391.5L315.66 391.5L315.66 392.5ZM321.625 392.5L324.607 392.5L324.607 391.5L321.625 391.5L321.625 392.5ZM327.59 392.5L330.572 392.5L330.572 391.5L327.59 391.5L327.59 392.5ZM333.555 392.5L336.538 392.5L336.538 391.5L333.555 391.5L333.555 392.5ZM339.52 392.5L342.503 392.5L342.503 391.5L339.52 391.5L339.52 392.5ZM345.485 392.5L348.468 392.5L348.468 391.5L345.485 391.5L345.485 392.5ZM351.45 392.5L354.433 392.5L354.433 391.5L351.45 391.5L351.45 392.5ZM357.416 392.5L360.398 392.5L360.398 391.5L357.416 391.5L357.416 392.5ZM363.381 392.5L366.363 392.5L366.363 391.5L363.381 391.5L363.381 392.5ZM369.346 392.5L372.328 392.5L372.328 391.5L369.346 391.5L369.346 392.5ZM375.311 392.5L378.294 392.5L378.294 391.5L375.311 391.5L375.311 392.5ZM381.276 392.5L384.259 392.5L384.259 391.5L381.276 391.5L381.276 392.5ZM387.241 392.5L390.224 392.5L390.224 391.5L387.241 391.5L387.241 392.5ZM393.207 392.5L396.189 392.5L396.189 391.5L393.207 391.5L393.207 392.5ZM399.172 392.5L402.154 392.5L402.154 391.5L399.172 391.5L399.172 392.5ZM405.137 392.5L408.119 392.5L408.119 391.5L405.137 391.5L405.137 392.5ZM411.102 392.5L414.085 392.5L414.085 391.5L411.102 391.5L411.102 392.5ZM417.067 392.5L420.05 392.5L420.05 391.5L417.067 391.5L417.067 392.5ZM423.032 392.5L426.015 392.5L426.015 391.5L423.032 391.5L423.032 392.5ZM428.997 392.5L431.98 392.5L431.98 391.5L428.997 391.5L428.997 392.5ZM434.963 392.5L437.945 392.5L437.945 391.5L434.963 391.5L434.963 392.5ZM440.928 392.5L443.91 392.5L443.91 391.5L440.928 391.5L440.928 392.5ZM446.893 392.5L449.875 392.5L449.875 391.5L446.893 391.5L446.893 392.5ZM452.858 392.5L455.841 392.5L455.841 391.5L452.858 391.5L452.858 392.5ZM458.823 392.5L461.806 392.5L461.806 391.5L458.823 391.5L458.823 392.5ZM464.788 392.5L467.771 392.5L467.771 391.5L464.788 391.5L464.788 392.5ZM470.753 392.5L473.736 392.5L473.736 391.5L470.753 391.5L470.753 392.5ZM476.719 392.5L479.701 392.5L479.701 391.5L476.719 391.5L476.719 392.5ZM482.684 392.5L485.666 392.5L485.666 391.5L482.684 391.5L482.684 392.5ZM488.649 392.5L491.631 392.5L491.631 391.5L488.649 391.5L488.649 392.5ZM494.614 392.5L497.597 392.5L497.597 391.5L494.614 391.5L494.614 392.5ZM500.579 392.5L503.562 392.5L503.562 391.5L500.579 391.5L500.579 392.5ZM506.544 392.5L509.527 392.5L509.527 391.5L506.544 391.5L506.544 392.5ZM512.509 392.5L514 392.5L514 391.5L512.509 391.5L512.509 392.5Z" fill="black"/>
</svg>
