<svg width="619" height="368" viewBox="0 0 619 368" fill="none" xmlns="http://www.w3.org/2000/svg">
<path d="M1.00017 364L0.500167 364L0.500167 364.5L1.00017 364.5L1.00017 364ZM618.354 364.354C618.549 364.158 618.549 363.842 618.354 363.646L615.172 360.465C614.976 360.269 614.66 360.269 614.464 360.465C614.269 360.66 614.269 360.976 614.464 361.172L617.293 364L614.464 366.828C614.269 367.024 614.269 367.34 614.464 367.536C614.66 367.731 614.976 367.731 615.172 367.536L618.354 364.354ZM0.5 -2.67901e-05L0.5 1.49178L1.5 1.49178L1.5 -2.71497e-05L0.5 -2.67901e-05ZM0.500061 4.47538L0.500061 7.45899L1.50006 7.45899L1.50006 4.47538L0.500061 4.47538ZM0.500061 10.4426L0.50006 13.4262L1.50006 13.4262L1.50006 10.4426L0.500061 10.4426ZM0.50006 16.4098L0.50006 19.3934L1.50006 19.3934L1.50006 16.4098L0.50006 16.4098ZM0.50006 22.377L0.50006 25.3606L1.50006 25.3606L1.50006 22.377L0.50006 22.377ZM0.50006 28.3442L0.50006 31.3278L1.50006 31.3278L1.50006 28.3442L0.50006 28.3442ZM0.50006 34.3115L0.500059 37.2951L1.50006 37.2951L1.50006 34.3115L0.50006 34.3115ZM0.500059 40.2787L0.500059 43.2623L1.50006 43.2623L1.50006 40.2787L0.500059 40.2787ZM0.500059 46.2459L0.500059 49.2295L1.50006 49.2295L1.50006 46.2459L0.500059 46.2459ZM0.500059 52.2131L0.500059 55.1967L1.50006 55.1967L1.50006 52.2131L0.500059 52.2131ZM0.500058 58.1803L0.500058 61.1639L1.50006 61.1639L1.50006 58.1803L0.500058 58.1803ZM0.500058 64.1475L0.500058 67.1311L1.50006 67.1311L1.50006 64.1475L0.500058 64.1475ZM0.500058 70.1147L0.500058 73.0983L1.50006 73.0983L1.50006 70.1147L0.500058 70.1147ZM0.500058 76.082L0.500058 79.0656L1.50006 79.0656L1.50006 76.082L0.500058 76.082ZM0.500057 82.0492L0.500057 85.0328L1.50006 85.0328L1.50006 82.0492L0.500057 82.0492ZM0.500057 88.0164L0.500057 91L1.50006 91L1.50006 88.0164L0.500057 88.0164ZM0.500057 93.9836L0.500057 96.9672L1.50006 96.9672L1.50006 93.9836L0.500057 93.9836ZM0.500057 99.9508L0.500057 102.934L1.50006 102.934L1.50006 99.9508L0.500057 99.9508ZM0.500056 105.918L0.500056 108.902L1.50006 108.902L1.50006 105.918L0.500056 105.918ZM0.500056 111.885L0.500056 114.869L1.50006 114.869L1.50006 111.885L0.500056 111.885ZM0.500056 117.852L0.500056 120.836L1.50006 120.836L1.50006 117.852L0.500056 117.852ZM0.500056 123.82L0.500055 126.803L1.50006 126.803L1.50006 123.82L0.500056 123.82ZM0.500055 129.787L0.500055 132.77L1.50006 132.77L1.50006 129.787L0.500055 129.787ZM0.500055 135.754L0.500055 138.738L1.50005 138.738L1.50006 135.754L0.500055 135.754ZM0.500055 141.721L0.500055 144.705L1.50005 144.705L1.50005 141.721L0.500055 141.721ZM0.500055 147.689L0.500054 150.672L1.50005 150.672L1.50005 147.689L0.500055 147.689ZM0.500054 153.656L0.500115 156.639L1.50012 156.639L1.50005 153.656L0.500054 153.656ZM0.500115 159.623L0.500115 162.607L1.50011 162.607L1.50012 159.623L0.500115 159.623ZM0.500115 165.59L0.500115 168.574L1.50011 168.574L1.50011 165.59L0.500115 165.59ZM0.500115 171.557L0.500114 174.541L1.50011 174.541L1.50011 171.557L0.500115 171.557ZM0.500114 177.525L0.500114 180.508L1.50011 180.508L1.50011 177.525L0.500114 177.525ZM0.500114 183.492L0.500114 186.475L1.50011 186.475L1.50011 183.492L0.500114 183.492ZM0.500114 189.459L0.500114 192.443L1.50011 192.443L1.50011 189.459L0.500114 189.459ZM0.500114 195.426L0.500113 198.41L1.50011 198.41L1.50011 195.426L0.500114 195.426ZM0.500113 201.394L0.500113 204.377L1.50011 204.377L1.50011 201.394L0.500113 201.394ZM0.500113 207.361L0.500113 210.344L1.50011 210.344L1.50011 207.361L0.500113 207.361ZM0.500113 213.328L0.500113 216.312L1.50011 216.312L1.50011 213.328L0.500113 213.328ZM0.500112 219.295L0.500112 222.279L1.50011 222.279L1.50011 219.295L0.500112 219.295ZM0.500112 225.262L0.500112 228.246L1.50011 228.246L1.50011 225.262L0.500112 225.262ZM0.500112 231.23L0.500112 234.213L1.50011 234.213L1.50011 231.23L0.500112 231.23ZM0.500112 237.197L0.500112 240.18L1.50011 240.18L1.50011 237.197L0.500112 237.197ZM0.500111 243.164L0.500111 246.148L1.50011 246.148L1.50011 243.164L0.500111 243.164ZM0.500111 249.131L0.500111 252.115L1.50011 252.115L1.50011 249.131L0.500111 249.131ZM0.500111 255.099L0.500111 258.082L1.50011 258.082L1.50011 255.099L0.500111 255.099ZM0.500111 261.066L0.500111 264.049L1.50011 264.049L1.50011 261.066L0.500111 261.066ZM0.50011 267.033L0.50011 270.017L1.50011 270.017L1.50011 267.033L0.50011 267.033ZM0.50011 273L0.50011 275.984L1.50011 275.984L1.50011 273L0.50011 273ZM0.50011 278.967L0.50011 281.951L1.50011 281.951L1.50011 278.967L0.50011 278.967ZM0.50011 284.935L0.500109 287.918L1.50011 287.918L1.50011 284.935L0.50011 284.935ZM0.500109 290.902L0.500109 293.886L1.50011 293.886L1.50011 290.902L0.500109 290.902ZM0.500109 296.869L0.500109 299.853L1.50011 299.853L1.50011 296.869L0.500109 296.869ZM0.500109 302.836L0.50017 305.82L1.50017 305.82L1.50011 302.836L0.500109 302.836ZM0.50017 308.804L0.500169 311.787L1.50017 311.787L1.50017 308.804L0.50017 308.804ZM0.500169 314.771L0.500169 317.754L1.50017 317.754L1.50017 314.771L0.500169 314.771ZM0.500169 320.738L0.500169 323.722L1.50017 323.722L1.50017 320.738L0.500169 320.738ZM0.500169 326.705L0.500169 329.689L1.50017 329.689L1.50017 326.705L0.500169 326.705ZM0.500169 332.672L0.500168 335.656L1.50017 335.656L1.50017 332.672L0.500169 332.672ZM0.500168 338.64L0.500168 341.623L1.50017 341.623L1.50017 338.64L0.500168 338.64ZM0.500168 344.607L0.500168 347.591L1.50017 347.591L1.50017 344.607L0.500168 344.607ZM0.500168 350.574L0.500168 353.558L1.50017 353.558L1.50017 350.574L0.500168 350.574ZM0.500168 356.541L0.500167 359.525L1.50017 359.525L1.50017 356.541L0.500168 356.541ZM0.500167 362.509L0.500167 364L1.50017 364L1.50017 362.509L0.500167 362.509ZM1.00017 364.5L2.49773 364.5L2.49773 363.5L1.00017 363.5L1.00017 364.5ZM5.4929 364.5L8.48802 364.5L8.48802 363.5L5.4929 363.5L5.4929 364.5ZM11.4831 364.5L14.4783 364.5L14.4783 363.5L11.4831 363.5L11.4831 364.5ZM17.4734 364.5L20.4686 364.5L20.4686 363.5L17.4734 363.5L17.4734 364.5ZM23.4637 364.5L26.4589 364.5L26.4589 363.5L23.4637 363.5L23.4637 364.5ZM29.454 364.5L32.4492 364.5L32.4492 363.5L29.454 363.5L29.454 364.5ZM35.4443 364.5L38.4394 364.5L38.4394 363.5L35.4443 363.5L35.4443 364.5ZM41.4346 364.5L44.4297 364.5L44.4297 363.5L41.4346 363.5L41.4346 364.5ZM47.4249 364.5L50.42 364.5L50.42 363.5L47.4249 363.5L47.4249 364.5ZM53.4152 364.5L56.4103 364.5L56.4103 363.5L53.4152 363.5L53.4152 364.5ZM59.4055 364.5L62.4006 364.5L62.4006 363.5L59.4055 363.5L59.4055 364.5ZM65.3957 364.5L68.3909 364.5L68.3909 363.5L65.3957 363.5L65.3957 364.5ZM71.386 364.5L74.3812 364.5L74.3812 363.5L71.386 363.5L71.386 364.5ZM77.3763 364.5L80.3715 364.5L80.3715 363.5L77.3763 363.5L77.3763 364.5ZM83.3666 364.5L86.3618 364.5L86.3618 363.5L83.3666 363.5L83.3666 364.5ZM89.3569 364.5L92.3521 364.5L92.3521 363.5L89.3569 363.5L89.3569 364.5ZM95.3472 364.5L98.3424 364.5L98.3424 363.5L95.3472 363.5L95.3472 364.5ZM101.338 364.5L104.333 364.5L104.333 363.5L101.338 363.5L101.338 364.5ZM107.328 364.5L110.323 364.5L110.323 363.5L107.328 363.5L107.328 364.5ZM113.318 364.5L116.313 364.5L116.313 363.5L113.318 363.5L113.318 364.5ZM119.308 364.5L122.304 364.5L122.304 363.5L119.308 363.5L119.308 364.5ZM125.299 364.5L128.294 364.5L128.294 363.5L125.299 363.5L125.299 364.5ZM131.289 364.5L134.284 364.5L134.284 363.5L131.289 363.5L131.289 364.5ZM137.279 364.5L140.274 364.5L140.274 363.5L137.279 363.5L137.279 364.5ZM143.27 364.5L146.265 364.5L146.265 363.5L143.27 363.5L143.27 364.5ZM149.26 364.5L152.255 364.5L152.255 363.5L149.26 363.5L149.26 364.5ZM155.25 364.5L158.245 364.5L158.245 363.5L155.25 363.5L155.25 364.5ZM161.24 364.5L164.236 364.5L164.236 363.5L161.24 363.5L161.24 364.5ZM167.231 364.5L170.226 364.5L170.226 363.5L167.231 363.5L167.231 364.5ZM173.221 364.5L176.216 364.5L176.216 363.5L173.221 363.5L173.221 364.5ZM179.211 364.5L182.207 364.5L182.207 363.5L179.211 363.5L179.211 364.5ZM185.202 364.5L188.197 364.5L188.197 363.5L185.202 363.5L185.202 364.5ZM191.192 364.5L194.187 364.5L194.187 363.5L191.192 363.5L191.192 364.5ZM197.182 364.5L200.177 364.5L200.177 363.5L197.182 363.5L197.182 364.5ZM203.173 364.5L206.168 364.5L206.168 363.5L203.173 363.5L203.173 364.5ZM209.163 364.5L212.158 364.5L212.158 363.5L209.163 363.5L209.163 364.5ZM215.153 364.5L218.148 364.5L218.148 363.5L215.153 363.5L215.153 364.5ZM221.143 364.5L224.139 364.5L224.139 363.5L221.143 363.5L221.143 364.5ZM227.134 364.5L230.129 364.5L230.129 363.5L227.134 363.5L227.134 364.5ZM233.124 364.5L236.119 364.5L236.119 363.5L233.124 363.5L233.124 364.5ZM239.114 364.5L242.109 364.5L242.109 363.5L239.114 363.5L239.114 364.5ZM245.105 364.5L248.1 364.5L248.1 363.5L245.105 363.5L245.105 364.5ZM251.095 364.5L254.09 364.5L254.09 363.5L251.095 363.5L251.095 364.5ZM257.085 364.5L260.08 364.5L260.08 363.5L257.085 363.5L257.085 364.5ZM263.076 364.5L266.071 364.5L266.071 363.5L263.076 363.5L263.076 364.5ZM269.066 364.5L272.061 364.5L272.061 363.5L269.066 363.5L269.066 364.5ZM275.056 364.5L278.051 364.5L278.051 363.5L275.056 363.5L275.056 364.5ZM281.046 364.5L284.042 364.5L284.042 363.5L281.046 363.5L281.046 364.5ZM287.037 364.5L290.032 364.5L290.032 363.5L287.037 363.5L287.037 364.5ZM293.027 364.5L296.022 364.5L296.022 363.5L293.027 363.5L293.027 364.5ZM299.017 364.5L302.012 364.5L302.012 363.5L299.017 363.5L299.017 364.5ZM305.008 364.5L308.003 364.5L308.003 363.5L305.008 363.5L305.008 364.5ZM310.998 364.5L313.993 364.5L313.993 363.5L310.998 363.5L310.998 364.5ZM316.988 364.5L319.983 364.5L319.983 363.5L316.988 363.5L316.988 364.5ZM322.978 364.5L325.974 364.5L325.974 363.5L322.978 363.5L322.978 364.5ZM328.969 364.5L331.964 364.5L331.964 363.5L328.969 363.5L328.969 364.5ZM334.959 364.5L337.954 364.5L337.954 363.5L334.959 363.5L334.959 364.5ZM340.949 364.5L343.945 364.5L343.945 363.5L340.949 363.5L340.949 364.5ZM346.94 364.5L349.935 364.5L349.935 363.5L346.94 363.5L346.94 364.5ZM352.93 364.5L355.925 364.5L355.925 363.5L352.93 363.5L352.93 364.5ZM358.92 364.5L361.915 364.5L361.915 363.5L358.92 363.5L358.92 364.5ZM364.911 364.5L367.906 364.5L367.906 363.5L364.911 363.5L364.911 364.5ZM370.901 364.5L373.896 364.5L373.896 363.5L370.901 363.5L370.901 364.5ZM376.891 364.5L379.886 364.5L379.886 363.5L376.891 363.5L376.891 364.5ZM382.881 364.5L385.877 364.5L385.877 363.5L382.881 363.5L382.881 364.5ZM388.872 364.5L391.867 364.5L391.867 363.5L388.872 363.5L388.872 364.5ZM394.862 364.5L397.857 364.5L397.857 363.5L394.862 363.5L394.862 364.5ZM400.852 364.5L403.847 364.5L403.847 363.5L400.852 363.5L400.852 364.5ZM406.843 364.5L409.838 364.5L409.838 363.5L406.843 363.5L406.843 364.5ZM412.833 364.5L415.828 364.5L415.828 363.5L412.833 363.5L412.833 364.5ZM418.823 364.5L421.818 364.5L421.818 363.5L418.823 363.5L418.823 364.5ZM424.814 364.5L427.809 364.5L427.809 363.5L424.814 363.5L424.814 364.5ZM430.804 364.5L433.799 364.5L433.799 363.5L430.804 363.5L430.804 364.5ZM436.794 364.5L439.789 364.5L439.789 363.5L436.794 363.5L436.794 364.5ZM442.784 364.5L445.78 364.5L445.78 363.5L442.784 363.5L442.784 364.5ZM448.775 364.5L451.77 364.5L451.77 363.5L448.775 363.5L448.775 364.5ZM454.765 364.5L457.76 364.5L457.76 363.5L454.765 363.5L454.765 364.5ZM460.755 364.5L463.75 364.5L463.75 363.5L460.755 363.5L460.755 364.5ZM466.746 364.5L469.741 364.5L469.741 363.5L466.746 363.5L466.746 364.5ZM472.736 364.5L475.731 364.5L475.731 363.5L472.736 363.5L472.736 364.5ZM478.726 364.5L481.721 364.5L481.721 363.5L478.726 363.5L478.726 364.5ZM484.716 364.5L487.712 364.5L487.712 363.5L484.716 363.5L484.716 364.5ZM490.707 364.5L493.702 364.5L493.702 363.5L490.707 363.5L490.707 364.5ZM496.697 364.5L499.692 364.5L499.692 363.5L496.697 363.5L496.697 364.5ZM502.687 364.5L505.683 364.5L505.683 363.5L502.687 363.5L502.687 364.5ZM508.678 364.5L511.673 364.5L511.673 363.5L508.678 363.5L508.678 364.5ZM514.668 364.5L517.663 364.5L517.663 363.5L514.668 363.5L514.668 364.5ZM520.658 364.5L523.653 364.5L523.653 363.5L520.658 363.5L520.658 364.5ZM526.648 364.5L529.644 364.5L529.644 363.5L526.648 363.5L526.648 364.5ZM532.639 364.5L535.634 364.5L535.634 363.5L532.639 363.5L532.639 364.5ZM538.629 364.5L541.624 364.5L541.624 363.5L538.629 363.5L538.629 364.5ZM544.619 364.5L547.614 364.5L547.614 363.5L544.619 363.5L544.619 364.5ZM550.609 364.5L553.604 364.5L553.604 363.5L550.609 363.5L550.609 364.5ZM556.6 364.5L559.595 364.5L559.595 363.5L556.6 363.5L556.6 364.5ZM562.59 364.5L565.585 364.5L565.585 363.5L562.59 363.5L562.59 364.5ZM568.58 364.5L571.575 364.5L571.575 363.5L568.58 363.5L568.58 364.5ZM574.57 364.5L577.565 364.5L577.565 363.5L574.57 363.5L574.57 364.5ZM580.56 364.5L583.556 364.5L583.556 363.5L580.56 363.5L580.56 364.5ZM586.551 364.5L589.546 364.5L589.546 363.5L586.551 363.5L586.551 364.5ZM592.541 364.5L595.536 364.5L595.536 363.5L592.541 363.5L592.541 364.5ZM598.531 364.5L601.526 364.5L601.526 363.5L598.531 363.5L598.531 364.5ZM604.521 364.5L607.517 364.5L607.517 363.5L604.521 363.5L604.521 364.5ZM610.512 364.5L613.507 364.5L613.507 363.5L610.512 363.5L610.512 364.5ZM616.502 364.5L618 364.5L618 363.5L616.502 363.5L616.502 364.5Z" fill="black"/>
</svg>
