<svg width="619" height="543" viewBox="0 0 619 543" fill="none" xmlns="http://www.w3.org/2000/svg">
<path d="M1.00016 539L0.50016 539L0.50016 539.5L1.00016 539.5L1.00016 539ZM618.354 539.354C618.549 539.158 618.549 538.842 618.354 538.646L615.172 535.464C614.976 535.269 614.66 535.269 614.464 535.464C614.269 535.66 614.269 535.976 614.464 536.172L617.293 539L614.464 541.828C614.269 542.024 614.269 542.34 614.464 542.536C614.66 542.731 614.976 542.731 615.172 542.536L618.354 539.354ZM0.5 -2.68556e-05L0.5 1.4972L1.5 1.49719L1.5 -2.70843e-05L0.5 -2.68556e-05ZM0.500061 4.49164L0.500061 7.48608L1.50006 7.48608L1.50006 4.49164L0.500061 4.49164ZM0.500061 10.4805L0.50006 13.475L1.50006 13.475L1.50006 10.4805L0.500061 10.4805ZM0.50006 16.4694L0.50006 19.4639L1.50006 19.4639L1.50006 16.4694L0.50006 16.4694ZM0.50006 22.4583L0.50006 25.4527L1.50006 25.4527L1.50006 22.4583L0.50006 22.4583ZM0.50006 28.4472L0.50006 31.4416L1.50006 31.4416L1.50006 28.4472L0.50006 28.4472ZM0.50006 34.4361L0.500059 37.4305L1.50006 37.4305L1.50006 34.4361L0.50006 34.4361ZM0.500059 40.425L0.500059 43.4194L1.50006 43.4194L1.50006 40.425L0.500059 40.425ZM0.500059 46.4139L0.500059 49.4083L1.50006 49.4083L1.50006 46.4139L0.500059 46.4139ZM0.500059 52.4028L0.500059 55.3972L1.50006 55.3972L1.50006 52.4028L0.500059 52.4028ZM0.500058 58.3916L0.500058 61.3861L1.50006 61.3861L1.50006 58.3916L0.500058 58.3916ZM0.500058 64.3805L0.500058 67.375L1.50006 67.375L1.50006 64.3805L0.500058 64.3805ZM0.500058 70.3694L0.500058 73.3639L1.50006 73.3639L1.50006 70.3694L0.500058 70.3694ZM0.500058 76.3583L0.500058 79.3528L1.50006 79.3528L1.50006 76.3583L0.500058 76.3583ZM0.500057 82.3472L0.500057 85.3417L1.50006 85.3417L1.50006 82.3472L0.500057 82.3472ZM0.500057 88.3361L0.500057 91.3305L1.50006 91.3305L1.50006 88.3361L0.500057 88.3361ZM0.500057 94.325L0.500057 97.3194L1.50006 97.3194L1.50006 94.325L0.500057 94.325ZM0.500057 100.314L0.500057 103.308L1.50006 103.308L1.50006 100.314L0.500057 100.314ZM0.500056 106.303L0.500056 109.297L1.50006 109.297L1.50006 106.303L0.500056 106.303ZM0.500056 112.292L0.500056 115.286L1.50006 115.286L1.50006 112.292L0.500056 112.292ZM0.500056 118.281L0.500056 121.275L1.50006 121.275L1.50006 118.281L0.500056 118.281ZM0.500056 124.269L0.500055 127.264L1.50006 127.264L1.50006 124.269L0.500056 124.269ZM0.500055 130.258L0.500055 133.253L1.50006 133.253L1.50006 130.258L0.500055 130.258ZM0.500055 136.247L0.500055 139.242L1.50005 139.242L1.50006 136.247L0.500055 136.247ZM0.500055 142.236L0.500055 145.231L1.50005 145.231L1.50005 142.236L0.500055 142.236ZM0.500055 148.225L0.500054 151.219L1.50005 151.219L1.50005 148.225L0.500055 148.225ZM0.500054 154.214L0.500054 157.208L1.50005 157.208L1.50005 154.214L0.500054 154.214ZM0.500054 160.203L0.500054 163.197L1.50005 163.197L1.50005 160.203L0.500054 160.203ZM0.500054 166.192L0.500054 169.186L1.50005 169.186L1.50005 166.192L0.500054 166.192ZM0.500054 172.181L0.500053 175.175L1.50005 175.175L1.50005 172.181L0.500054 172.181ZM0.500053 178.169L0.500053 181.164L1.50005 181.164L1.50005 178.169L0.500053 178.169ZM0.500053 184.158L0.500053 187.153L1.50005 187.153L1.50005 184.158L0.500053 184.158ZM0.500053 190.147L0.500053 193.142L1.50005 193.142L1.50005 190.147L0.500053 190.147ZM0.500052 196.136L0.500052 199.131L1.50005 199.131L1.50005 196.136L0.500052 196.136ZM0.500052 202.125L0.500052 205.119L1.50005 205.119L1.50005 202.125L0.500052 202.125ZM0.500052 208.114L0.500052 211.108L1.50005 211.108L1.50005 208.114L0.500052 208.114ZM0.500052 214.103L0.500052 217.097L1.50005 217.097L1.50005 214.103L0.500052 214.103ZM0.500051 220.092L0.500051 223.086L1.50005 223.086L1.50005 220.092L0.500051 220.092ZM0.500051 226.081L0.500112 229.075L1.50011 229.075L1.50005 226.081L0.500051 226.081ZM0.500112 232.069L0.500112 235.064L1.50011 235.064L1.50011 232.069L0.500112 232.069ZM0.500112 238.058L0.500112 241.053L1.50011 241.053L1.50011 238.058L0.500112 238.058ZM0.500111 244.047L0.500111 247.042L1.50011 247.042L1.50011 244.047L0.500111 244.047ZM0.500111 250.036L0.500111 253.031L1.50011 253.031L1.50011 250.036L0.500111 250.036ZM0.500111 256.025L0.500111 259.02L1.50011 259.02L1.50011 256.025L0.500111 256.025ZM0.500111 262.014L0.50011 265.008L1.50011 265.008L1.50011 262.014L0.500111 262.014ZM0.50011 268.003L0.50011 270.997L1.50011 270.997L1.50011 268.003L0.50011 268.003ZM0.50011 273.992L0.50011 276.986L1.50011 276.986L1.50011 273.992L0.50011 273.992ZM0.50011 279.981L0.50011 282.975L1.50011 282.975L1.50011 279.981L0.50011 279.981ZM0.50011 285.97L0.500109 288.964L1.50011 288.964L1.50011 285.97L0.50011 285.97ZM0.500109 291.958L0.500109 294.953L1.50011 294.953L1.50011 291.958L0.500109 291.958ZM0.500109 297.947L0.500109 300.942L1.50011 300.942L1.50011 297.947L0.500109 297.947ZM0.500109 303.936L0.500109 306.931L1.50011 306.931L1.50011 303.936L0.500109 303.936ZM0.500109 309.925L0.500108 312.92L1.50011 312.92L1.50011 309.925L0.500109 309.925ZM0.500108 315.914L0.500108 318.908L1.50011 318.908L1.50011 315.914L0.500108 315.914ZM0.500108 321.903L0.500108 324.897L1.50011 324.897L1.50011 321.903L0.500108 321.903ZM0.500108 327.892L0.500108 330.886L1.50011 330.886L1.50011 327.892L0.500108 327.892ZM0.500107 333.881L0.500107 336.875L1.50011 336.875L1.50011 333.881L0.500107 333.881ZM0.500107 339.87L0.500107 342.864L1.50011 342.864L1.50011 339.87L0.500107 339.87ZM0.500107 345.858L0.500107 348.853L1.50011 348.853L1.50011 345.858L0.500107 345.858ZM0.500107 351.847L0.500107 354.842L1.50011 354.842L1.50011 351.847L0.500107 351.847ZM0.500106 357.836L0.500106 360.831L1.50011 360.831L1.50011 357.836L0.500106 357.836ZM0.500106 363.825L0.500106 366.82L1.50011 366.82L1.50011 363.825L0.500106 363.825ZM0.500106 369.814L0.500106 372.808L1.50011 372.808L1.50011 369.814L0.500106 369.814ZM0.500106 375.803L0.500106 378.797L1.50011 378.797L1.50011 375.803L0.500106 375.803ZM0.500105 381.792L0.500105 384.786L1.50011 384.786L1.50011 381.792L0.500105 381.792ZM0.500105 387.781L0.500105 390.775L1.5001 390.775L1.50011 387.781L0.500105 387.781ZM0.500105 393.77L0.500105 396.764L1.5001 396.764L1.5001 393.77L0.500105 393.77ZM0.500105 399.758L0.500104 402.753L1.5001 402.753L1.5001 399.758L0.500105 399.758ZM0.500104 405.747L0.500104 408.742L1.5001 408.742L1.5001 405.747L0.500104 405.747ZM0.500104 411.736L0.500104 414.731L1.5001 414.731L1.5001 411.736L0.500104 411.736ZM0.500104 417.725L0.500104 420.72L1.5001 420.72L1.5001 417.725L0.500104 417.725ZM0.500104 423.714L0.500103 426.708L1.5001 426.708L1.5001 423.714L0.500104 423.714ZM0.500103 429.703L0.500103 432.697L1.5001 432.697L1.5001 429.703L0.500103 429.703ZM0.500103 435.692L0.500103 438.686L1.5001 438.686L1.5001 435.692L0.500103 435.692ZM0.500103 441.681L0.500103 444.675L1.5001 444.675L1.5001 441.681L0.500103 441.681ZM0.500103 447.67L0.500102 450.664L1.5001 450.664L1.5001 447.67L0.500103 447.67ZM0.500163 453.658L0.500163 456.653L1.50016 456.653L1.50016 453.658L0.500163 453.658ZM0.500163 459.647L0.500163 462.642L1.50016 462.642L1.50016 459.647L0.500163 459.647ZM0.500163 465.636L0.500163 468.631L1.50016 468.631L1.50016 465.636L0.500163 465.636ZM0.500162 471.625L0.500162 474.62L1.50016 474.62L1.50016 471.625L0.500162 471.625ZM0.500162 477.614L0.500162 480.608L1.50016 480.608L1.50016 477.614L0.500162 477.614ZM0.500162 483.603L0.500162 486.597L1.50016 486.597L1.50016 483.603L0.500162 483.603ZM0.500162 489.592L0.500162 492.586L1.50016 492.586L1.50016 489.592L0.500162 489.592ZM0.500161 495.581L0.500161 498.575L1.50016 498.575L1.50016 495.581L0.500161 495.581ZM0.500161 501.57L0.500161 504.564L1.50016 504.564L1.50016 501.57L0.500161 501.57ZM0.500161 507.559L0.500161 510.553L1.50016 510.553L1.50016 507.559L0.500161 507.559ZM0.500161 513.547L0.500161 516.542L1.50016 516.542L1.50016 513.547L0.500161 513.547ZM0.50016 519.536L0.50016 522.531L1.50016 522.531L1.50016 519.536L0.50016 519.536ZM0.50016 525.525L0.50016 528.52L1.50016 528.52L1.50016 525.525L0.50016 525.525ZM0.50016 531.514L0.50016 534.509L1.50016 534.509L1.50016 531.514L0.50016 531.514ZM0.50016 537.503L0.50016 539L1.50016 539L1.50016 537.503L0.50016 537.503ZM1.00016 539.5L2.49772 539.5L2.49772 538.5L1.00016 538.5L1.00016 539.5ZM5.4929 539.5L8.48801 539.5L8.48801 538.5L5.4929 538.5L5.4929 539.5ZM11.4831 539.5L14.4783 539.5L14.4783 538.5L11.4831 538.5L11.4831 539.5ZM17.4734 539.5L20.4686 539.5L20.4686 538.5L17.4734 538.5L17.4734 539.5ZM23.4637 539.5L26.4589 539.5L26.4589 538.5L23.4637 538.5L23.4637 539.5ZM29.454 539.5L32.4492 539.5L32.4492 538.5L29.454 538.5L29.454 539.5ZM35.4443 539.5L38.4394 539.5L38.4394 538.5L35.4443 538.5L35.4443 539.5ZM41.4346 539.5L44.4297 539.5L44.4297 538.5L41.4346 538.5L41.4346 539.5ZM47.4249 539.5L50.42 539.5L50.42 538.5L47.4249 538.5L47.4249 539.5ZM53.4152 539.5L56.4103 539.5L56.4103 538.5L53.4152 538.5L53.4152 539.5ZM59.4055 539.5L62.4006 539.5L62.4006 538.5L59.4055 538.5L59.4055 539.5ZM65.3957 539.5L68.3909 539.5L68.3909 538.5L65.3957 538.5L65.3957 539.5ZM71.386 539.5L74.3812 539.5L74.3812 538.5L71.386 538.5L71.386 539.5ZM77.3763 539.5L80.3715 539.5L80.3715 538.5L77.3763 538.5L77.3763 539.5ZM83.3666 539.5L86.3618 539.5L86.3618 538.5L83.3666 538.5L83.3666 539.5ZM89.3569 539.5L92.3521 539.5L92.3521 538.5L89.3569 538.5L89.3569 539.5ZM95.3472 539.5L98.3424 539.5L98.3424 538.5L95.3472 538.5L95.3472 539.5ZM101.338 539.5L104.333 539.5L104.333 538.5L101.338 538.5L101.338 539.5ZM107.328 539.5L110.323 539.5L110.323 538.5L107.328 538.5L107.328 539.5ZM113.318 539.5L116.313 539.5L116.313 538.5L113.318 538.5L113.318 539.5ZM119.308 539.5L122.304 539.5L122.304 538.5L119.308 538.5L119.308 539.5ZM125.299 539.5L128.294 539.5L128.294 538.5L125.299 538.5L125.299 539.5ZM131.289 539.5L134.284 539.5L134.284 538.5L131.289 538.5L131.289 539.5ZM137.279 539.5L140.274 539.5L140.274 538.5L137.279 538.5L137.279 539.5ZM143.27 539.5L146.265 539.5L146.265 538.5L143.27 538.5L143.27 539.5ZM149.26 539.5L152.255 539.5L152.255 538.5L149.26 538.5L149.26 539.5ZM155.25 539.5L158.245 539.5L158.245 538.5L155.25 538.5L155.25 539.5ZM161.24 539.5L164.236 539.5L164.236 538.5L161.24 538.5L161.24 539.5ZM167.231 539.5L170.226 539.5L170.226 538.5L167.231 538.5L167.231 539.5ZM173.221 539.5L176.216 539.5L176.216 538.5L173.221 538.5L173.221 539.5ZM179.211 539.5L182.207 539.5L182.207 538.5L179.211 538.5L179.211 539.5ZM185.202 539.5L188.197 539.5L188.197 538.5L185.202 538.5L185.202 539.5ZM191.192 539.5L194.187 539.5L194.187 538.5L191.192 538.5L191.192 539.5ZM197.182 539.5L200.177 539.5L200.177 538.5L197.182 538.5L197.182 539.5ZM203.173 539.5L206.168 539.5L206.168 538.5L203.173 538.5L203.173 539.5ZM209.163 539.5L212.158 539.5L212.158 538.5L209.163 538.5L209.163 539.5ZM215.153 539.5L218.148 539.5L218.148 538.5L215.153 538.5L215.153 539.5ZM221.143 539.5L224.139 539.5L224.139 538.5L221.143 538.5L221.143 539.5ZM227.134 539.5L230.129 539.5L230.129 538.5L227.134 538.5L227.134 539.5ZM233.124 539.5L236.119 539.5L236.119 538.5L233.124 538.5L233.124 539.5ZM239.114 539.5L242.109 539.5L242.109 538.5L239.114 538.5L239.114 539.5ZM245.105 539.5L248.1 539.5L248.1 538.5L245.105 538.5L245.105 539.5ZM251.095 539.5L254.09 539.5L254.09 538.5L251.095 538.5L251.095 539.5ZM257.085 539.5L260.08 539.5L260.08 538.5L257.085 538.5L257.085 539.5ZM263.076 539.5L266.071 539.5L266.071 538.5L263.076 538.5L263.076 539.5ZM269.066 539.5L272.061 539.5L272.061 538.5L269.066 538.5L269.066 539.5ZM275.056 539.5L278.051 539.5L278.051 538.5L275.056 538.5L275.056 539.5ZM281.046 539.5L284.042 539.5L284.042 538.5L281.046 538.5L281.046 539.5ZM287.037 539.5L290.032 539.5L290.032 538.5L287.037 538.5L287.037 539.5ZM293.027 539.5L296.022 539.5L296.022 538.5L293.027 538.5L293.027 539.5ZM299.017 539.5L302.012 539.5L302.012 538.5L299.017 538.5L299.017 539.5ZM305.008 539.5L308.003 539.5L308.003 538.5L305.008 538.5L305.008 539.5ZM310.998 539.5L313.993 539.5L313.993 538.5L310.998 538.5L310.998 539.5ZM316.988 539.5L319.983 539.5L319.983 538.5L316.988 538.5L316.988 539.5ZM322.978 539.5L325.974 539.5L325.974 538.5L322.978 538.5L322.978 539.5ZM328.969 539.5L331.964 539.5L331.964 538.5L328.969 538.5L328.969 539.5ZM334.959 539.5L337.954 539.5L337.954 538.5L334.959 538.5L334.959 539.5ZM340.949 539.5L343.944 539.5L343.944 538.5L340.949 538.5L340.949 539.5ZM346.94 539.5L349.935 539.5L349.935 538.5L346.94 538.5L346.94 539.5ZM352.93 539.5L355.925 539.5L355.925 538.5L352.93 538.5L352.93 539.5ZM358.92 539.5L361.915 539.5L361.915 538.5L358.92 538.5L358.92 539.5ZM364.911 539.5L367.906 539.5L367.906 538.5L364.911 538.5L364.911 539.5ZM370.901 539.5L373.896 539.5L373.896 538.5L370.901 538.5L370.901 539.5ZM376.891 539.5L379.886 539.5L379.886 538.5L376.891 538.5L376.891 539.5ZM382.881 539.5L385.877 539.5L385.877 538.5L382.881 538.5L382.881 539.5ZM388.872 539.5L391.867 539.5L391.867 538.5L388.872 538.5L388.872 539.5ZM394.862 539.5L397.857 539.5L397.857 538.5L394.862 538.5L394.862 539.5ZM400.852 539.5L403.847 539.5L403.847 538.5L400.852 538.5L400.852 539.5ZM406.843 539.5L409.838 539.5L409.838 538.5L406.843 538.5L406.843 539.5ZM412.833 539.5L415.828 539.5L415.828 538.5L412.833 538.5L412.833 539.5ZM418.823 539.5L421.818 539.5L421.818 538.5L418.823 538.5L418.823 539.5ZM424.813 539.5L427.809 539.5L427.809 538.5L424.813 538.5L424.813 539.5ZM430.804 539.5L433.799 539.5L433.799 538.5L430.804 538.5L430.804 539.5ZM436.794 539.5L439.789 539.5L439.789 538.5L436.794 538.5L436.794 539.5ZM442.784 539.5L445.78 539.5L445.78 538.5L442.784 538.5L442.784 539.5ZM448.775 539.5L451.77 539.5L451.77 538.5L448.775 538.5L448.775 539.5ZM454.765 539.5L457.76 539.5L457.76 538.5L454.765 538.5L454.765 539.5ZM460.755 539.5L463.75 539.5L463.75 538.5L460.755 538.5L460.755 539.5ZM466.746 539.5L469.741 539.5L469.741 538.5L466.746 538.5L466.746 539.5ZM472.736 539.5L475.731 539.5L475.731 538.5L472.736 538.5L472.736 539.5ZM478.726 539.5L481.721 539.5L481.721 538.5L478.726 538.5L478.726 539.5ZM484.716 539.5L487.712 539.5L487.712 538.5L484.716 538.5L484.716 539.5ZM490.707 539.5L493.702 539.5L493.702 538.5L490.707 538.5L490.707 539.5ZM496.697 539.5L499.692 539.5L499.692 538.5L496.697 538.5L496.697 539.5ZM502.687 539.5L505.683 539.5L505.683 538.5L502.687 538.5L502.687 539.5ZM508.678 539.5L511.673 539.5L511.673 538.5L508.678 538.5L508.678 539.5ZM514.668 539.5L517.663 539.5L517.663 538.5L514.668 538.5L514.668 539.5ZM520.658 539.5L523.653 539.5L523.653 538.5L520.658 538.5L520.658 539.5ZM526.648 539.5L529.644 539.5L529.644 538.5L526.648 538.5L526.648 539.5ZM532.639 539.5L535.634 539.5L535.634 538.5L532.639 538.5L532.639 539.5ZM538.629 539.5L541.624 539.5L541.624 538.5L538.629 538.5L538.629 539.5ZM544.619 539.5L547.614 539.5L547.614 538.5L544.619 538.5L544.619 539.5ZM550.609 539.5L553.604 539.5L553.604 538.5L550.609 538.5L550.609 539.5ZM556.6 539.5L559.595 539.5L559.595 538.5L556.6 538.5L556.6 539.5ZM562.59 539.5L565.585 539.5L565.585 538.5L562.59 538.5L562.59 539.5ZM568.58 539.5L571.575 539.5L571.575 538.5L568.58 538.5L568.58 539.5ZM574.57 539.5L577.565 539.5L577.565 538.5L574.57 538.5L574.57 539.5ZM580.56 539.5L583.556 539.5L583.556 538.5L580.56 538.5L580.56 539.5ZM586.551 539.5L589.546 539.5L589.546 538.5L586.551 538.5L586.551 539.5ZM592.541 539.5L595.536 539.5L595.536 538.5L592.541 538.5L592.541 539.5ZM598.531 539.5L601.526 539.5L601.526 538.5L598.531 538.5L598.531 539.5ZM604.521 539.5L607.517 539.5L607.517 538.5L604.521 538.5L604.521 539.5ZM610.512 539.5L613.507 539.5L613.507 538.5L610.512 538.5L610.512 539.5ZM616.502 539.5L618 539.5L618 538.5L616.502 538.5L616.502 539.5Z" fill="black"/>
</svg>
